<svg xmlns="http://www.w3.org/2000/svg" width="16" height="16" viewBox="0 0 16 16" fill="#191919">
  <path fill-rule="evenodd" clip-rule="evenodd" d="M0 2.28571C0 1.67951 0.240816 1.09812 0.66947 0.66947C1.09812 0.240816 1.67951 0 2.28571 0H3.33105C3.98629 0 4.55771 0.446476 4.71695 1.0819L5.55886 4.45181C5.62708 4.72457 5.6133 5.0114 5.51924 5.27636C5.42518 5.54132 5.25503 5.77264 5.0301 5.94133L4.04495 6.68038C3.9421 6.75733 3.92 6.8701 3.94895 6.94857C4.37896 8.11798 5.05798 9.17997 5.93901 10.061C6.82003 10.942 7.88202 11.621 9.05143 12.051C9.1299 12.08 9.24191 12.0579 9.31962 11.955L10.0587 10.9699C10.2274 10.745 10.4587 10.5748 10.7236 10.4808C10.9886 10.3867 11.2754 10.3729 11.5482 10.4411L14.9181 11.283C15.5535 11.4423 16 12.0137 16 12.6697V13.7143C16 14.3205 15.7592 14.9019 15.3305 15.3305C14.9019 15.7592 14.3205 16 13.7143 16H12C5.37295 16 0 10.627 0 4V2.28571Z" fill="#191919"/>
</svg>
