<?xml version="1.0" encoding="utf-8"?>
<!-- Generator: Adobe Illustrator 27.5.0, SVG Export Plug-In . SVG Version: 6.00 Build 0)  -->
<svg version="1.1" id="Layer_1" xmlns="http://www.w3.org/2000/svg" xmlns:xlink="http://www.w3.org/1999/xlink" x="0px" y="0px"
	 viewBox="0 0 713.7 204.2" enable-background="new 0 0 713.7 204.2" xml:space="preserve">
<g>
	<g>
		<rect x="245.3" y="61.7" fill="#96BFE6" width="33.1" height="70.4"/>
		<rect x="191.7" y="67.9" fill="#0A72BA" width="67.2" height="66"/>
		<polygon fill="#0A72BA" points="197.9,67.9 252,67.9 252,64 224.9,51.9 197.9,64 		"/>
		<rect x="191.6" y="67.9" fill="#1E2B5C" width="67.3" height="1.2"/>
		<polygon fill="#96BFE6" points="207.8,64.2 224.6,56.6 241.3,64.2 		"/>
		<polygon fill="#1E2B5C" points="224.6,56.6 237.5,64.2 241.3,64.2 		"/>
		<polygon fill="#1E2B5C" points="258.9,67.9 265.7,132.1 258.9,132.1 		"/>
		<polygon fill="#1E2B5C" points="252,64 254.8,69.1 252,69.1 		"/>
		<rect x="244.8" y="79.7" fill="#1E2B5C" width="6.4" height="6.4"/>
		<rect x="233.1" y="79.7" fill="#1E2B5C" width="6.4" height="6.4"/>
		<rect x="221.4" y="79.7" fill="#1E2B5C" width="6.4" height="6.4"/>
		<rect x="209.6" y="79.7" fill="#1E2B5C" width="6.4" height="6.4"/>
		<rect x="197.9" y="79.7" fill="#1E2B5C" width="6.4" height="6.4"/>
		<rect x="244.8" y="97" fill="#1E2B5C" width="6.4" height="6.4"/>
		<rect x="233.1" y="97" fill="#1E2B5C" width="6.4" height="6.4"/>
		<rect x="221.4" y="97" fill="#1E2B5C" width="6.4" height="6.4"/>
		<rect x="209.6" y="97" fill="#1E2B5C" width="6.4" height="6.4"/>
		<rect x="197.9" y="97" fill="#1E2B5C" width="6.4" height="6.4"/>
	</g>
	<rect x="400.7" y="61.7" fill="#96BFE6" width="33.1" height="70.4"/>
	<polygon fill="#0A72BA" points="400.9,63.6 400.9,60.3 341.3,36.2 281.6,60.3 281.6,63.6 278.5,63.6 278.5,133.3 404,133.3
		404,63.6 	"/>
	<rect x="337" y="101.5" fill="#1E2B5C" width="7.8" height="7.8"/>
	<rect x="325.1" y="90.8" fill="#96BFE6" width="6.7" height="42.5"/>
	<rect x="350.2" y="90.8" fill="#96BFE6" width="6.7" height="42.5"/>
	<rect x="199" y="115.2" fill="#1E2B5C" width="6.4" height="6.4"/>
	<rect x="210.7" y="115.2" fill="#1E2B5C" width="6.4" height="6.4"/>
	<rect x="222.4" y="115.2" fill="#1E2B5C" width="6.4" height="6.4"/>
	<rect x="234.1" y="115.2" fill="#1E2B5C" width="6.4" height="6.4"/>
	<rect x="245.9" y="115.2" fill="#1E2B5C" width="6.4" height="6.4"/>
	<rect x="420.3" y="67.9" fill="#0A72BA" width="67.2" height="66"/>
	<polygon fill="#0A72BA" points="481.3,67.9 427.2,67.9 427.2,64 454.2,51.9 481.3,64 	"/>
	<path fill="#96BFE6" d="M340.8,71L340.8,71c-5.4,0-9.7,4.4-9.7,9.7v7.8h19.4v-7.8c0-0.3,0-0.6,0-0.9C350.1,74.8,345.9,71,340.8,71"
		/>
	<path fill="#1E2B5C" d="M345.2,79v7.1h-8.3V79c0-0.2,0-0.3,0-0.5c0.2-1.9,1.7-3.4,3.6-3.6c0.2,0,0.3,0,0.5,0c0.2,0,0.3,0,0.5,0
		c1.9,0.2,3.4,1.7,3.6,3.6C345.1,78.7,345.2,78.9,345.2,79"/>
	<path fill="#1E2B5C" d="M357.5,82.3c-0.4-8.8-7.7-15.9-16.6-15.9c-8.9,0-16.2,7.1-16.6,15.9h-0.9V85h2.7v-2.7h-0.2
		c0.4-8,7-14.3,15.1-14.3c8.1,0,14.7,6.4,15.1,14.3h-0.2V85h2.7v-2.7H357.5z"/>
	<rect x="345.2" y="117" fill="#1E2B5C" width="4.5" height="3.9"/>
	<rect x="337.8" y="117" fill="#1E2B5C" width="6.4" height="3.9"/>
	<rect x="337.8" y="121.8" fill="#1E2B5C" width="6.4" height="6"/>
	<rect x="332.3" y="117" fill="#1E2B5C" width="4.5" height="3.9"/>
	<rect x="332.3" y="121.8" fill="#1E2B5C" width="4.5" height="6"/>
	<rect x="332.3" y="129.1" fill="#1E2B5C" width="4.5" height="3.6"/>
	<rect x="337.8" y="129.1" fill="#1E2B5C" width="6.4" height="3.6"/>
	<rect x="345.2" y="129.1" fill="#1E2B5C" width="4.5" height="3.6"/>
	<rect x="345.2" y="121.8" fill="#1E2B5C" width="4.5" height="6"/>
	<rect x="379.2" y="119" fill="#1E2B5C" width="7.4" height="10"/>
	<rect x="365.6" y="76.9" fill="#1E2B5C" width="7.4" height="7.4"/>
	<rect x="365.6" y="97.5" fill="#1E2B5C" width="7.4" height="7.4"/>
	<rect x="392.8" y="119" fill="#1E2B5C" width="7.4" height="10"/>
	<rect x="379.2" y="97.5" fill="#1E2B5C" width="7.4" height="7.4"/>
	<rect x="379.2" y="76.9" fill="#1E2B5C" width="7.4" height="7.4"/>
	<rect x="365.6" y="119" fill="#1E2B5C" width="7.4" height="10"/>
	<rect x="392.8" y="97.5" fill="#1E2B5C" width="7.4" height="7.4"/>
	<rect x="392.8" y="76.9" fill="#1E2B5C" width="7.4" height="7.4"/>
	<rect x="282.3" y="76.9" fill="#1E2B5C" width="7.4" height="7.4"/>
	<rect x="282.3" y="97.5" fill="#1E2B5C" width="7.4" height="7.4"/>
	<rect x="309.5" y="119" fill="#1E2B5C" width="7.4" height="10"/>
	<rect x="282.3" y="119" fill="#1E2B5C" width="7.4" height="10"/>
	<rect x="295.9" y="119" fill="#1E2B5C" width="7.4" height="10"/>
	<rect x="309.5" y="76.9" fill="#1E2B5C" width="7.4" height="7.4"/>
	<rect x="309.5" y="97.5" fill="#1E2B5C" width="7.4" height="7.4"/>
	<rect x="295.9" y="97.5" fill="#1E2B5C" width="7.4" height="7.4"/>
	<rect x="295.9" y="76.9" fill="#1E2B5C" width="7.4" height="7.4"/>
	<polygon fill="#1E2B5C" points="350.5,79.8 352.9,90.8 350.6,90.8 	"/>
	<rect x="420.2" y="67.9" fill="#1E2B5C" width="67.3" height="1.2"/>
	<rect x="278.5" y="63.6" fill="#1E2B5C" width="125.5" height="1.2"/>
	<polygon fill="#96BFE6" points="471.4,64.2 454.6,56.6 437.9,64.2 	"/>
	<polygon fill="#1E2B5C" points="454.6,56.6 441.7,64.2 437.9,64.2 	"/>
	<polygon fill="#96BFE6" points="306.5,55.3 376,55.3 341.3,41.2 	"/>
	<polygon fill="#1E2B5C" points="341.3,41.2 369.2,55.3 376,55.3 	"/>
	<polygon fill="#1E2B5C" points="341.3,41.2 313.3,55.3 306.5,55.3 	"/>
	<polygon fill="#1E2B5C" points="420.3,67.9 413.4,132.1 420.3,132.1 	"/>
	<polygon fill="#1E2B5C" points="427.2,64 424.3,69.1 427.2,69.1 	"/>
	<rect x="428" y="79.7" fill="#1E2B5C" width="6.4" height="6.4"/>
	<rect x="439.7" y="79.7" fill="#1E2B5C" width="6.4" height="6.4"/>
	<rect x="451.4" y="79.7" fill="#1E2B5C" width="6.4" height="6.4"/>
	<rect x="463.2" y="79.7" fill="#1E2B5C" width="6.4" height="6.4"/>
	<rect x="474.9" y="79.7" fill="#1E2B5C" width="6.4" height="6.4"/>
	<rect x="428" y="97" fill="#1E2B5C" width="6.4" height="6.4"/>
	<rect x="439.7" y="97" fill="#1E2B5C" width="6.4" height="6.4"/>
	<rect x="451.4" y="97" fill="#1E2B5C" width="6.4" height="6.4"/>
	<rect x="463.2" y="97" fill="#1E2B5C" width="6.4" height="6.4"/>
	<rect x="474.9" y="97" fill="#1E2B5C" width="6.4" height="6.4"/>
	<rect x="428" y="115.2" fill="#1E2B5C" width="6.4" height="6.4"/>
	<rect x="439.7" y="115.2" fill="#1E2B5C" width="6.4" height="6.4"/>
	<rect x="451.4" y="115.2" fill="#1E2B5C" width="6.4" height="6.4"/>
	<rect x="463.2" y="115.2" fill="#1E2B5C" width="6.4" height="6.4"/>
	<rect x="474.9" y="115.2" fill="#1E2B5C" width="6.4" height="6.4"/>
	<polygon fill="#1E2B5C" points="404,63.6 408.5,132.3 404,132.3 	"/>
	<polygon fill="#1E2B5C" points="275.6,63.3 271.1,132.1 275.6,132.1 	"/>
	<polygon fill="#1E2B5C" points="356.9,90.8 361.3,133.3 356.9,133.3 	"/>
	<polygon fill="#1E2B5C" points="331.1,79.8 328.7,90.8 331.1,90.8 	"/>
	<polygon fill="#1E2B5C" points="325.1,90.8 320.7,133.3 325.1,133.3 	"/>
	<rect x="330.1" y="98.8" fill="#1E2B5C" width="21.8" height="1"/>
	<rect x="330.1" y="88.4" fill="#0A72BA" width="21.8" height="10.4"/>
	<rect x="330.1" y="88.4" fill="#1E2B5C" width="21.8" height="1"/>
	<path fill="#0A72BA" d="M212.4,124.5C212.4,124.5,212.4,124.5,212.4,124.5l0.1-3.6c0,0-0.1,0-0.1-0.1h0.1v-3.2V112v-1.4v-4.7H23.2
		l0,0v0H4.3v3.1v3v5.6v2.9v4.2v6.4v65h208.2v-70.2L212.4,124.5L212.4,124.5z"/>
	<rect y="114.9" fill="#1E2B5C" width="212.5" height="1.7"/>
	<rect y="123.1" fill="#1E2B5C" width="212.5" height="1.7"/>
	<rect x="51.9" y="169.5" fill="#1E2B5C" width="113.7" height="5.2"/>
	<rect x="51.9" y="169.5" fill="none" stroke="#0C72BA" stroke-width="1.3599" stroke-miterlimit="10" width="113.7" height="5.2"/>
	<rect x="54.1" y="174.1" fill="#96BFE6" width="108.5" height="5.3"/>
	<rect x="53.3" y="174.1" fill="none" stroke="#0C72BA" stroke-width="1.3344" stroke-miterlimit="10" width="109.3" height="5.3"/>
	<rect x="54.1" y="179.3" fill="#96BFE6" width="108.5" height="5.2"/>
	<rect x="54.1" y="179.3" fill="none" stroke="#0C72BA" stroke-width="1.3296" stroke-miterlimit="10" width="108.5" height="5.2"/>
	<rect x="54.1" y="184.6" fill="#96BFE6" width="108.5" height="5.2"/>
	<rect x="54.1" y="184.6" fill="none" stroke="#0C72BA" stroke-width="1.3296" stroke-miterlimit="10" width="108.5" height="5.2"/>
	<rect x="54.1" y="189.8" fill="#96BFE6" width="108.5" height="5.2"/>
	<rect x="54.1" y="189.8" fill="none" stroke="#0C72BA" stroke-width="1.3296" stroke-miterlimit="10" width="108.5" height="5.2"/>
	<rect x="19.6" y="104.1" fill="#1E2B5C" width="177.5" height="2.2"/>
	<polygon fill="#1E2B5C" points="79.3,125.5 85,170.2 79.9,170.2 	"/>
	<polygon fill="#1E2B5C" points="99.7,125.5 105.4,170.2 100.2,170.2 	"/>
	<polygon fill="#1E2B5C" points="120.5,125.5 126.2,170.2 121.1,170.2 	"/>
	<polygon fill="#1E2B5C" points="140.9,125.5 146.7,170.2 141.5,170.2 	"/>
	<path fill="#96BFE6" d="M73.4,169.5c-0.2,0-0.3,0.1-0.3,0.3c0,0.2,0.1,0.3,0.3,0.3h8.2c0.2,0,0.3-0.1,0.3-0.3
		c0-0.2-0.1-0.3-0.3-0.3H80l-0.7-44l0.4-0.1c0.2-0.1,0.3-0.2,0.4-0.3l0.2-0.3h-5.7l0.2,0.3c0.1,0.2,0.2,0.3,0.4,0.3l0.4,0.1l0,0.4
		l-0.7,43.5H73.4z"/>
	<path fill="#96BFE6" d="M93.7,169.5c-0.2,0-0.3,0.1-0.3,0.3c0,0.2,0.1,0.3,0.3,0.3h8.2c0.2,0,0.3-0.1,0.3-0.3
		c0-0.2-0.1-0.3-0.3-0.3h-1.5l-0.7-44l0.4-0.1c0.2-0.1,0.3-0.2,0.4-0.3l0.2-0.3h-5.7l0.2,0.3c0.1,0.2,0.2,0.3,0.4,0.3l0.4,0.1l0,0.4
		l-0.7,43.5H93.7z"/>
	<path fill="#96BFE6" d="M114.5,169.5c-0.2,0-0.3,0.1-0.3,0.3c0,0.2,0.1,0.3,0.3,0.3h8.2c0.2,0,0.3-0.1,0.3-0.3
		c0-0.2-0.1-0.3-0.3-0.3h-1.5l-0.7-44l0.4-0.1c0.2-0.1,0.3-0.2,0.4-0.3l0.2-0.3h-5.7l0.2,0.3c0.1,0.2,0.2,0.3,0.4,0.3l0.4,0.1l0,0.4
		l-0.7,43.5H114.5z"/>
	<path fill="#96BFE6" d="M135.1,169.5c-0.2,0-0.3,0.1-0.3,0.3c0,0.2,0.1,0.3,0.3,0.3h8.2c0.2,0,0.3-0.1,0.3-0.3
		c0-0.2-0.1-0.3-0.3-0.3h-1.5l-0.7-44l0.4-0.1c0.2-0.1,0.3-0.2,0.4-0.3l0.2-0.3h-5.7l0.2,0.3c0.1,0.2,0.2,0.3,0.4,0.3l0.4,0.1l0,0.4
		l-0.7,43.5H135.1z"/>
	<polygon fill="#1E2B5C" points="54.1,173.4 58.7,196.2 54.1,196.2 	"/>
	<polygon fill="#1E2B5C" points="162.6,173.4 158,196.2 162.6,196.2 	"/>
	<rect x="65.8" y="178.6" fill="#1E2B5C" width="85.3" height="0.6"/>
	<rect x="65.8" y="183.9" fill="#1E2B5C" width="85.3" height="0.6"/>
	<rect x="65.8" y="189.2" fill="#1E2B5C" width="85.3" height="0.6"/>
	<rect x="65.8" y="194.4" fill="#1E2B5C" width="85.3" height="0.6"/>
	<polygon fill="#0A72BA" points="168.1,196.2 144.2,196.2 140.6,174.6 164.5,174.6 	"/>
	<polygon fill="#0A72BA" points="177.4,85.9 38.6,85.9 19.6,104.1 155.9,104.1 156.3,104.1 197.1,104.1 	"/>
	<polygon fill="#96BFE6" points="38.6,85.9 19.6,104.1 55.7,104.1 43,85.9 	"/>
	<polygon fill="#96BFE6" points="177.5,85.9 197.1,104.1 160.3,104.1 173.1,85.9 	"/>
	<polygon fill="#1E2B5C" points="43,85.9 65.5,104.2 55.7,104.1 	"/>
	<polygon fill="#1E2B5C" points="173.1,85.9 150.6,104.1 160.4,104.1 	"/>
	<rect x="496.9" y="107" fill="#96BFE6" width="15.8" height="88.8"/>
	<rect x="573.4" y="107.2" fill="#96BFE6" width="15.8" height="88.8"/>
	<line fill="#0A72BA" x1="564.8" y1="106.1" x2="573.4" y2="106.1"/>
	<rect x="564.9" y="105.7" fill="#1E2B5C" width="8.5" height="0.9"/>
	<rect x="372.5" y="111.6" fill="#0A72BA" width="124.5" height="83.8"/>
	<rect x="521.3" y="93.7" fill="#96BFE6" width="43.6" height="102.2"/>
	<polygon fill="#1E2B5C" points="529.7,121.8 528.3,121.8 528.3,126.5 531.1,126.5 531.8,122.7 	"/>
	<polygon fill="#1E2B5C" points="529.9,117.4 529.9,121.2 532,122 533.8,118.9 532.2,117.4 	"/>
	<polygon fill="#1E2B5C" points="532.6,114.1 532.6,116.8 534.3,118.3 537,116 536,114.1 	"/>
	<polygon fill="#1E2B5C" points="536.5,111.6 536.5,113.6 537.7,115.6 541,114.4 540.6,111.6 	"/>
	<polygon fill="#1E2B5C" points="557.4,121.8 555.2,122.7 555.9,126.5 558.8,126.5 558.8,121.8 	"/>
	<polygon fill="#1E2B5C" points="557.1,121.2 557.1,117.4 554.8,117.4 553.2,118.9 555.1,122 	"/>
	<polygon fill="#1E2B5C" points="541,109.8 541.8,114.4 545.2,114.4 546,109.8 	"/>
	<polygon fill="#1E2B5C" points="550.5,111.6 546.5,111.6 546,114.4 549.3,115.6 550.5,113.6 	"/>
	<polygon fill="#1E2B5C" points="554.4,114.1 551.1,114.1 550.1,116 552.7,118.3 554.4,116.8 	"/>
	<rect x="512.8" y="100" fill="#0A72BA" width="8.5" height="95.9"/>
	<rect x="564.9" y="100" fill="#0A72BA" width="8.5" height="95.9"/>
	<path fill="#1E2B5C" d="M543.5,114.1L543.5,114.1c-7.4,0-13.5,6-13.5,13.5v34.9h27v-34.9C557,120.1,551,114.1,543.5,114.1"/>
	<path fill="#96BFE6" d="M557.4,162.8h-27.7v-35.2c0-7.6,6.2-13.9,13.9-13.9c7.6,0,13.9,6.2,13.9,13.9V162.8z M530.4,162h26.2v-34.5
		c0-7.2-5.9-13.1-13.1-13.1c-7.2,0-13.1,5.9-13.1,13.1V162z"/>
	<polygon fill="#1E2B5C" points="550.2,169.4 543.8,169.4 537.4,169.4 530.5,169.4 530.5,195.4 537.4,195.4 543.8,195.4
		550.2,195.4 556.5,195.4 556.5,169.4 	"/>
	<polygon fill="#1E2B5C" points="399.5,124.7 395.4,124.7 390.5,124.7 385.5,124.7 381.5,124.7 381.4,124.7 381.4,146.3
		381.5,146.3 385.5,146.3 390.5,146.3 395.4,146.3 399.5,146.3 399.5,146.3 399.5,124.7 	"/>
	<path fill="#0A72BA" d="M395.4,124.4h-0.5h-4h-0.6h-4h-0.6h-4.5v22.2h4.5h0.6h4h0.6h4h0.5h4.5v-22.2H395.4z M381.9,125h3.9v3.9
		h-3.9V125z M395.4,142.1h4v3.9h-4V142.1z M386.4,142.1h4v3.9h-4V142.1z M394.9,141.6h-4v-12.3h4V141.6z M394.9,128.9h-4V125h4
		V128.9z M390.3,128.9h-4V125h4V128.9z M390.3,141.6h-4v-12.3h4V141.6z M390.9,142.1h4v3.9h-4V142.1z M399.4,128.9h-4V125h4V128.9z
		 M385.8,141.6h-3.9v-12.3h3.9V141.6z M385.8,146h-3.9v-3.9h3.9V146z M395.4,129.4h4v12.3h-4V129.4z"/>
	<polygon fill="#1E2B5C" points="428.7,124.7 424.6,124.7 419.7,124.7 414.8,124.7 410.7,124.7 410.6,124.7 410.6,146.3
		410.7,146.3 414.8,146.3 419.7,146.3 424.6,146.3 428.7,146.3 428.8,146.3 428.8,124.7 	"/>
	<path fill="#0A72BA" d="M424.6,124.4h-0.5h-4h-0.6h-4H415h-4.5v22.2h4.5h0.6h4h0.6h4h0.5h4.5v-22.2H424.6z M411.1,125h3.9v3.9h-3.9
		V125z M424.6,142.1h4v3.9h-4V142.1z M415.6,142.1h4v3.9h-4V142.1z M424.1,141.6h-4v-12.3h4V141.6z M424.1,128.9h-4V125h4V128.9z
		 M419.5,128.9h-4V125h4V128.9z M419.5,141.6h-4v-12.3h4V141.6z M420.1,142.1h4v3.9h-4V142.1z M428.6,128.9h-4V125h4V128.9z
		 M415,141.6h-3.9v-12.3h3.9V141.6z M415,146h-3.9v-3.9h3.9V146z M424.6,129.4h4v12.3h-4V129.4z"/>
	<polygon fill="#1E2B5C" points="457.9,124.7 453.8,124.7 448.9,124.7 444,124.7 439.9,124.7 439.9,124.7 439.9,146.3 439.9,146.3
		444,146.3 448.9,146.3 453.8,146.3 457.9,146.3 458,146.3 458,124.7 	"/>
	<path fill="#0A72BA" d="M453.9,124.4h-0.5h-4h-0.6h-4h-0.6h-4.5v22.2h4.5h0.6h4h0.6h4h0.5h4.5v-22.2H453.9z M440.3,125h3.9v3.9
		h-3.9V125z M453.9,142.1h4v3.9h-4V142.1z M444.8,142.1h4v3.9h-4V142.1z M453.3,141.6h-4v-12.3h4V141.6z M453.3,128.9h-4V125h4
		V128.9z M448.8,128.9h-4V125h4V128.9z M448.8,141.6h-4v-12.3h4V141.6z M449.3,142.1h4v3.9h-4V142.1z M457.8,128.9h-4V125h4V128.9z
		 M444.2,141.6h-3.9v-12.3h3.9V141.6z M444.2,146h-3.9v-3.9h3.9V146z M453.9,129.4h4v12.3h-4V129.4z"/>
	<polygon fill="#1E2B5C" points="487.1,124.7 483.1,124.7 478.1,124.7 473.2,124.7 469.2,124.7 469.1,124.7 469.1,146.3
		469.2,146.3 473.2,146.3 478.1,146.3 483.1,146.3 487.1,146.3 487.2,146.3 487.2,124.7 	"/>
	<path fill="#0A72BA" d="M483.1,124.4h-0.5h-4H478h-4h-0.6h-4.5v22.2h4.5h0.6h4h0.6h4h0.5h4.5v-22.2H483.1z M469.6,125h3.9v3.9h-3.9
		V125z M483.1,142.1h4v3.9h-4V142.1z M474,142.1h4v3.9h-4V142.1z M482.5,141.6h-4v-12.3h4V141.6z M482.5,128.9h-4V125h4V128.9z
		 M478,128.9h-4V125h4V128.9z M478,141.6h-4v-12.3h4V141.6z M478.5,142.1h4v3.9h-4V142.1z M487.1,128.9h-4V125h4V128.9z
		 M473.5,141.6h-3.9v-12.3h3.9V141.6z M473.5,146h-3.9v-3.9h3.9V146z M483.1,129.4h4v12.3h-4V129.4z"/>
	<polygon fill="#1E2B5C" points="399.5,158.7 395.4,158.7 390.5,158.7 385.5,158.7 381.5,158.7 381.4,158.7 381.4,180.3
		381.5,180.3 385.5,180.3 390.5,180.3 395.4,180.3 399.5,180.3 399.5,180.3 399.5,158.7 	"/>
	<path fill="#0A72BA" d="M395.4,158.4h-0.5h-4h-0.6h-4h-0.6h-4.5v22.2h4.5h0.6h4h0.6h4h0.5h4.5v-22.2H395.4z M381.9,159h3.9v3.9
		h-3.9V159z M395.4,176.2h4v3.9h-4V176.2z M386.4,176.2h4v3.9h-4V176.2z M394.9,175.6h-4v-12.3h4V175.6z M394.9,162.9h-4V159h4
		V162.9z M390.3,162.9h-4V159h4V162.9z M390.3,175.6h-4v-12.3h4V175.6z M390.9,176.2h4v3.9h-4V176.2z M399.4,162.9h-4V159h4V162.9z
		 M385.8,175.6h-3.9v-12.3h3.9V175.6z M385.8,180h-3.9v-3.9h3.9V180z M395.4,163.4h4v12.3h-4V163.4z"/>
	<polygon fill="#1E2B5C" points="428.7,158.7 424.6,158.7 419.7,158.7 414.8,158.7 410.7,158.7 410.6,158.7 410.6,180.3
		410.7,180.3 414.8,180.3 419.7,180.3 424.6,180.3 428.7,180.3 428.8,180.3 428.8,158.7 	"/>
	<path fill="#0A72BA" d="M424.6,158.4h-0.5h-4h-0.6h-4H415h-4.5v22.2h4.5h0.6h4h0.6h4h0.5h4.5v-22.2H424.6z M411.1,159h3.9v3.9h-3.9
		V159z M424.6,176.2h4v3.9h-4V176.2z M415.6,176.2h4v3.9h-4V176.2z M424.1,175.6h-4v-12.3h4V175.6z M424.1,162.9h-4V159h4V162.9z
		 M419.5,162.9h-4V159h4V162.9z M419.5,175.6h-4v-12.3h4V175.6z M420.1,176.2h4v3.9h-4V176.2z M428.6,162.9h-4V159h4V162.9z
		 M415,175.6h-3.9v-12.3h3.9V175.6z M415,180h-3.9v-3.9h3.9V180z M424.6,163.4h4v12.3h-4V163.4z"/>
	<polygon fill="#1E2B5C" points="457.9,158.7 453.8,158.7 448.9,158.7 444,158.7 439.9,158.7 439.9,158.7 439.9,180.3 439.9,180.3
		444,180.3 448.9,180.3 453.8,180.3 457.9,180.3 458,180.3 458,158.7 	"/>
	<path fill="#0A72BA" d="M453.9,158.4h-0.5h-4h-0.6h-4h-0.6h-4.5v22.2h4.5h0.6h4h0.6h4h0.5h4.5v-22.2H453.9z M440.3,159h3.9v3.9
		h-3.9V159z M453.9,176.2h4v3.9h-4V176.2z M444.8,176.2h4v3.9h-4V176.2z M453.3,175.6h-4v-12.3h4V175.6z M453.3,162.9h-4V159h4
		V162.9z M448.8,162.9h-4V159h4V162.9z M448.8,175.6h-4v-12.3h4V175.6z M449.3,176.2h4v3.9h-4V176.2z M457.8,162.9h-4V159h4V162.9z
		 M444.2,175.6h-3.9v-12.3h3.9V175.6z M444.2,180h-3.9v-3.9h3.9V180z M453.9,163.4h4v12.3h-4V163.4z"/>
	<polygon fill="#1E2B5C" points="487.1,158.7 483.1,158.7 478.1,158.7 473.2,158.7 469.2,158.7 469.1,158.7 469.1,180.3
		469.2,180.3 473.2,180.3 478.1,180.3 483.1,180.3 487.1,180.3 487.2,180.3 487.2,158.7 	"/>
	<path fill="#0A72BA" d="M483.1,158.4h-0.5h-4H478h-4h-0.6h-4.5v22.2h4.5h0.6h4h0.6h4h0.5h4.5v-22.2H483.1z M469.6,159h3.9v3.9h-3.9
		V159z M483.1,176.2h4v3.9h-4V176.2z M474,176.2h4v3.9h-4V176.2z M482.5,175.6h-4v-12.3h4V175.6z M482.5,162.9h-4V159h4V162.9z
		 M478,162.9h-4V159h4V162.9z M478,175.6h-4v-12.3h4V175.6z M478.5,176.2h4v3.9h-4V176.2z M487.1,162.9h-4V159h4V162.9z
		 M473.5,175.6h-3.9v-12.3h3.9V175.6z M473.5,180h-3.9v-3.9h3.9V180z M483.1,163.4h4v12.3h-4V163.4z"/>
	<rect x="589.2" y="111.6" fill="#0A72BA" width="124.5" height="83.8"/>
	<polygon fill="#1E2B5C" points="686.3,123.9 690.4,123.9 695.3,123.9 700.2,123.9 704.3,123.9 704.4,123.9 704.4,145.6
		704.3,145.6 700.2,145.6 695.3,145.6 690.4,145.6 686.3,145.6 686.2,145.6 686.2,123.9 	"/>
	<path fill="#0A72BA" d="M688.1,123.7v22.2h4h0.5h3.5h0.5h3.5h0.5h4v-22.2h-4H700h-3.5H696h-3.5h-0.5H688.1z M704,128.1h-3.4v-3.9
		h3.4V128.1z M692,145.3h-3.5v-3.9h3.5V145.3z M700,145.3h-3.5v-3.9h3.5V145.3z M692.6,128.6h3.5v12.3h-3.5V128.6z M692.6,124.2h3.5
		v3.9h-3.5V124.2z M696.5,124.2h3.5v3.9h-3.5V124.2z M700,140.9h-3.5v-12.3h3.5V140.9z M696,145.3h-3.5v-3.9h3.5V145.3z
		 M688.6,124.2h3.5v3.9h-3.5V124.2z M704,140.9h-3.5v-12.3h3.5V140.9z M704,145.3h-3.4v-3.9h3.4V145.3z M688.6,128.6h3.5v12.3h-3.5
		V128.6z"/>
	<polygon fill="#1E2B5C" points="657.1,123.9 661.2,123.9 666.1,123.9 671,123.9 675.1,123.9 675.1,123.9 675.1,145.6 675.1,145.6
		671,145.6 666.1,145.6 661.2,145.6 657.1,145.6 657,145.6 657,123.9 	"/>
	<path fill="#0A72BA" d="M656.6,123.7v22.2h4.5h0.5h4h0.6h4h0.6h4.5v-22.2h-4.5h-0.6h-4h-0.6h-4h-0.5H656.6z M674.7,128.1h-3.9v-3.9
		h3.9V128.1z M661.1,145.3h-4v-3.9h4V145.3z M670.2,145.3h-4v-3.9h4V145.3z M661.7,128.6h4v12.3h-4V128.6z M661.7,124.2h4v3.9h-4
		V124.2z M666.2,124.2h4v3.9h-4V124.2z M670.2,140.9h-4v-12.3h4V140.9z M665.7,145.3h-4v-3.9h4V145.3z M657.2,124.2h4v3.9h-4V124.2z
		 M674.7,140.9h-3.9v-12.3h3.9V140.9z M674.7,145.3h-3.9v-3.9h3.9V145.3z M657.2,128.6h4v12.3h-4V128.6z"/>
	<polygon fill="#1E2B5C" points="627.9,123.9 631.9,123.9 636.9,123.9 641.8,123.9 645.8,123.9 645.9,123.9 645.9,145.6
		645.8,145.6 641.8,145.6 636.9,145.6 631.9,145.6 627.9,145.6 627.8,145.6 627.8,123.9 	"/>
	<path fill="#0A72BA" d="M627.4,123.7v22.2h4.5h0.5h4h0.6h4h0.6h4.5v-22.2h-4.5H641h-4h-0.6h-4h-0.5H627.4z M645.4,128.1h-3.9v-3.9
		h3.9V128.1z M631.9,145.3h-4v-3.9h4V145.3z M641,145.3h-4v-3.9h4V145.3z M632.5,128.6h4v12.3h-4V128.6z M632.5,124.2h4v3.9h-4
		V124.2z M637,124.2h4v3.9h-4V124.2z M641,140.9h-4v-12.3h4V140.9z M636.4,145.3h-4v-3.9h4V145.3z M627.9,124.2h4v3.9h-4V124.2z
		 M645.5,140.9h-3.9v-12.3h3.9V140.9z M645.4,145.3h-3.9v-3.9h3.9V145.3z M627.9,128.6h4v12.3h-4V128.6z"/>
	<polygon fill="#1E2B5C" points="598.7,123.9 602.7,123.9 607.6,123.9 612.6,123.9 616.6,123.9 616.7,123.9 616.7,145.6
		616.6,145.6 612.6,145.6 607.6,145.6 602.7,145.6 598.7,145.6 598.6,145.6 598.6,123.9 	"/>
	<path fill="#0A72BA" d="M598.2,123.7v22.2h4.5h0.5h4h0.6h4h0.6h4.5v-22.2h-4.5h-0.6h-4h-0.6h-4h-0.5H598.2z M616.2,128.1h-3.9v-3.9
		h3.9V128.1z M602.7,145.3h-4v-3.9h4V145.3z M611.8,145.3h-4v-3.9h4V145.3z M603.3,128.6h4v12.3h-4V128.6z M603.3,124.2h4v3.9h-4
		V124.2z M607.8,124.2h4v3.9h-4V124.2z M611.8,140.9h-4v-12.3h4V140.9z M607.2,145.3h-4v-3.9h4V145.3z M598.7,124.2h4v3.9h-4V124.2z
		 M616.3,140.9h-3.9v-12.3h3.9V140.9z M616.2,145.3h-3.9v-3.9h3.9V145.3z M598.7,128.6h4v12.3h-4V128.6z"/>
	<polygon fill="#1E2B5C" points="686.3,157.9 690.4,157.9 695.3,157.9 700.2,157.9 704.3,157.9 704.4,157.9 704.4,179.6
		704.3,179.6 700.2,179.6 695.3,179.6 690.4,179.6 686.3,179.6 686.2,179.6 686.2,157.9 	"/>
	<path fill="#0A72BA" d="M685.8,157.7v22.2h4.5h0.6h4h0.6h4h0.6h4.5v-22.2H700h-0.6h-4h-0.6h-4h-0.6H685.8z M703.9,162.1H700v-3.9
		h3.9V162.1z M690.3,179.3h-4v-3.9h4V179.3z M699.4,179.3h-4v-3.9h4V179.3z M690.9,162.6h4v12.3h-4V162.6z M690.9,158.2h4v3.9h-4
		V158.2z M695.4,158.2h4v3.9h-4V158.2z M699.4,174.9h-4v-12.3h4V174.9z M694.9,179.3h-4v-3.9h4V179.3z M686.4,158.2h4v3.9h-4V158.2z
		 M703.9,174.9H700v-12.3h3.9V174.9z M703.9,179.3H700v-3.9h3.9V179.3z M686.4,162.6h4v12.3h-4V162.6z"/>
	<polygon fill="#1E2B5C" points="657.1,157.9 661.2,157.9 666.1,157.9 671,157.9 675.1,157.9 675.1,157.9 675.1,179.6 675.1,179.6
		671,179.6 666.1,179.6 661.2,179.6 657.1,179.6 657,179.6 657,157.9 	"/>
	<path fill="#0A72BA" d="M656.6,157.7v22.2h4.5h0.5h4h0.6h4h0.6h4.5v-22.2h-4.5h-0.6h-4h-0.6h-4h-0.5H656.6z M674.7,162.1h-3.9v-3.9
		h3.9V162.1z M661.1,179.3h-4v-3.9h4V179.3z M670.2,179.3h-4v-3.9h4V179.3z M661.7,162.6h4v12.3h-4V162.6z M661.7,158.2h4v3.9h-4
		V158.2z M666.2,158.2h4v3.9h-4V158.2z M670.2,174.9h-4v-12.3h4V174.9z M665.7,179.3h-4v-3.9h4V179.3z M657.2,158.2h4v3.9h-4V158.2z
		 M674.7,174.9h-3.9v-12.3h3.9V174.9z M674.7,179.3h-3.9v-3.9h3.9V179.3z M657.2,162.6h4v12.3h-4V162.6z"/>
	<polygon fill="#1E2B5C" points="627.9,157.9 631.9,157.9 636.9,157.9 641.8,157.9 645.8,157.9 645.9,157.9 645.9,179.6
		645.8,179.6 641.8,179.6 636.9,179.6 631.9,179.6 627.9,179.6 627.8,179.6 627.8,157.9 	"/>
	<path fill="#0A72BA" d="M627.4,157.7v22.2h4.5h0.5h4h0.6h4h0.6h4.5v-22.2h-4.5H641h-4h-0.6h-4h-0.5H627.4z M645.4,162.1h-3.9v-3.9
		h3.9V162.1z M631.9,179.3h-4v-3.9h4V179.3z M641,179.3h-4v-3.9h4V179.3z M632.5,162.6h4v12.3h-4V162.6z M632.5,158.2h4v3.9h-4
		V158.2z M637,158.2h4v3.9h-4V158.2z M641,174.9h-4v-12.3h4V174.9z M636.4,179.3h-4v-3.9h4V179.3z M627.9,158.2h4v3.9h-4V158.2z
		 M645.5,174.9h-3.9v-12.3h3.9V174.9z M645.4,179.3h-3.9v-3.9h3.9V179.3z M627.9,162.6h4v12.3h-4V162.6z"/>
	<polygon fill="#1E2B5C" points="598.7,157.9 602.7,157.9 607.6,157.9 612.6,157.9 616.6,157.9 616.7,157.9 616.7,179.6
		616.6,179.6 612.6,179.6 607.6,179.6 602.7,179.6 598.7,179.6 598.6,179.6 598.6,157.9 	"/>
	<path fill="#0A72BA" d="M598.2,157.7v22.2h4.5h0.5h4h0.6h4h0.6h4.5v-22.2h-4.5h-0.6h-4h-0.6h-4h-0.5H598.2z M616.2,162.1h-3.9v-3.9
		h3.9V162.1z M602.7,179.3h-4v-3.9h4V179.3z M611.8,179.3h-4v-3.9h4V179.3z M603.3,162.6h4v12.3h-4V162.6z M603.3,158.2h4v3.9h-4
		V158.2z M607.8,158.2h4v3.9h-4V158.2z M611.8,174.9h-4v-12.3h4V174.9z M607.2,179.3h-4v-3.9h4V179.3z M598.7,158.2h4v3.9h-4V158.2z
		 M616.3,174.9h-3.9v-12.3h3.9V174.9z M616.2,179.3h-3.9v-3.9h3.9V179.3z M598.7,162.6h4v12.3h-4V162.6z"/>
	<polygon fill="#1E2B5C" points="502.6,159.6 502.6,164.6 502.6,175.9 507.1,175.9 507.1,159.6 	"/>
	<path fill="#0A72BA" d="M507.4,176.2h-5v-16.9h5V176.2z M502.9,175.6h3.9v-15.7h-3.9V175.6z"/>
	<path fill="#96BFE6" d="M507.4,176.2h-5v-16.9h5V176.2z M502.9,175.6h3.9v-15.7h-3.9V175.6z"/>
	<rect x="502.6" y="164.3" fill="#96BFE6" width="4.4" height="0.6"/>
	<polygon fill="#1E2B5C" points="502.6,126 502.6,131 502.6,142.3 507.1,142.3 507.1,126 	"/>
	<path fill="#0A72BA" d="M507.4,142.6h-5v-16.9h5V142.6z M502.9,142h3.9v-15.7h-3.9V142z"/>
	<path fill="#96BFE6" d="M507.4,142.6h-5v-16.9h5V142.6z M502.9,142h3.9v-15.7h-3.9V142z"/>
	<rect x="502.6" y="130.7" fill="#96BFE6" width="4.4" height="0.6"/>
	<polygon fill="#1E2B5C" points="579.1,159.6 579.1,164.6 579.1,175.9 583.5,175.9 583.5,159.6 	"/>
	<path fill="#0A72BA" d="M583.8,176.2h-5v-16.9h5V176.2z M579.4,175.6h3.9v-15.7h-3.9V175.6z"/>
	<path fill="#96BFE6" d="M583.8,176.2h-5v-16.9h5V176.2z M579.4,175.6h3.9v-15.7h-3.9V175.6z"/>
	<rect x="579.1" y="164.3" fill="#96BFE6" width="4.4" height="0.6"/>
	<polygon fill="#1E2B5C" points="579.1,126 579.1,131 579.1,142.3 583.5,142.3 583.5,126 	"/>
	<path fill="#0A72BA" d="M583.8,142.6h-5v-16.9h5V142.6z M579.4,142h3.9v-15.7h-3.9V142z"/>
	<path fill="#96BFE6" d="M583.8,142.6h-5v-16.9h5V142.6z M579.4,142h3.9v-15.7h-3.9V142z"/>
	<rect x="579.1" y="130.7" fill="#96BFE6" width="4.4" height="0.6"/>
	<path fill="#96BFE6" d="M550.6,168.9h-6.4h-0.9H537H530v27h6.9h6.4h0.9h6.4h6.4v-27H550.6z M531,169.8h6V195h-6V169.8z
		 M537.9,169.8h5.5V195h-5.5V169.8z M544.2,169.8h5.5V195h-5.5V169.8z M556.1,195h-5.5v-25.1h5.5V195z"/>
	<path fill="#96BFE6" d="M557,127.1h-6.1c-0.1-1-0.5-1.9-1-2.7l5.4-3.1l-0.5-0.8l-5.5,3.2c-0.6-0.7-1.3-1.4-2.1-1.9l3.3-5.9
		l-0.8-0.4l-3.3,5.9c-0.8-0.3-1.6-0.5-2.5-0.6v-6.7h-0.9v6.7c-0.9,0.1-1.7,0.3-2.5,0.6l-3.3-5.9l-0.8,0.4l3.3,5.9
		c-0.8,0.5-1.5,1.1-2.1,1.9l-5.5-3.2l-0.5,0.8l5.4,3.1c-0.5,0.8-0.8,1.7-1,2.7H530v0.9h6c0,0,0,0.1,0,0.1v7.7h-6v0.9h6v7.8h-6v0.9h6
		v7.8h-6v0.9h6v8.1h7v0.1h0.9v-0.1h7v-8.1h6v-0.9h-6v-7.8h6v-0.9h-6v-7.8h6v-0.9h-6v-7.7c0,0,0-0.1,0-0.1h6V127.1z M550.1,127.1
		h-4.9l4-2.3C549.7,125.5,550,126.3,550.1,127.1 M548.7,124l-4,2.3l2.2-3.9C547.6,122.9,548.2,123.4,548.7,124 M546.1,122l-2.1,3.8
		v-4.3C544.7,121.6,545.4,121.7,546.1,122 M543.1,121.5v4.3l-2.1-3.8C541.6,121.7,542.3,121.6,543.1,121.5 M540.1,122.4l2.2,3.9
		l-4-2.3C538.8,123.4,539.4,122.9,540.1,122.4 M537.8,124.8l4,2.3h-4.9C537.1,126.3,537.4,125.5,537.8,124.8 M536.8,128.2
		c0,0,0-0.1,0-0.1h6.2v7.8h-6.2V128.2z M536.8,136.8h6.2v7.8h-6.2V136.8z M536.8,145.5h6.2v7.8h-6.2V145.5z M536.8,154.3h6.2v7.3
		h-6.2V154.3z M550.2,161.6H544v-7.3h6.2V161.6z M550.2,153.4H544v-7.8h6.2V153.4z M550.2,144.6H544v-7.8h6.2V144.6z M550.2,128.2
		v7.7H544V128h6.2C550.2,128.1,550.2,128.1,550.2,128.2"/>
	<polygon fill="#1E2B5C" points="589.2,107.2 589.2,195.4 593.8,195.4 	"/>
	<polygon fill="#1E2B5C" points="497,107.2 497,195.4 492.4,195.4 	"/>
	<polygon fill="#1E2B5C" points="564.8,93.7 564.8,195.9 567.4,195.9 	"/>
	<polygon fill="#1E2B5C" points="521.3,93.7 521.3,195.9 518.8,195.9 	"/>
	<polygon fill="#0A72BA" points="358.4,174.6 358.4,177.8 360.3,177.8 360.3,203.8 354.3,203.8 354.3,194.1 352,194.1 352,174.6
		341,174.6 341,177.8 342.7,177.8 342.7,203.8 336.7,203.8 336.7,194.1 335,194.1 335,174.6 323.8,174.6 323.8,177.8 325.3,177.8
		325.3,203.8 319.3,203.8 319.3,194.1 318.3,194.1 318.3,174.6 313.8,174.6 313.8,189.8 314.3,189.8 314.3,204.2 274,204.2
		274,189.8 274.5,189.8 274.5,174.6 270,174.6 270,194.1 268.9,194.1 268.9,203.8 262.9,203.8 262.9,177.8 264.5,177.8 264.5,174.6
		253.2,174.6 253.2,194.1 251.5,194.1 251.5,203.8 245.5,203.8 245.5,177.8 247.3,177.8 247.3,174.6 236.2,174.6 236.2,194.1
		233.9,194.1 233.9,203.8 227.9,203.8 227.9,177.8 229.8,177.8 229.8,174.6 227.3,174.6 220.6,170.8 227.5,170.8 227.5,170.8
		229.1,166.3 223.3,163.5 230,163.5 230.6,161.9 231.4,162.1 230.9,163.5 232.9,163.5 233.4,161.9 234.2,162.1 233.7,163.5
		235.7,163.5 236.2,161.9 236.9,162.1 236.5,163.5 238.5,163.5 239,161.9 239.7,162.1 239.3,163.5 241.4,163.5 241.8,161.9
		242.6,162.1 242.2,163.5 244.1,163.5 244.5,161.9 245.3,162.1 244.9,163.5 246.9,163.5 247.2,161.9 248,162.1 247.7,163.5
		249.7,163.5 250.1,161.9 250.8,162.1 250.5,163.5 252.4,163.5 252.8,161.9 253.5,162.1 253.2,163.5 255.2,163.5 255.6,161.9
		256.3,162.1 256.1,163.5 258.1,163.5 258.4,161.9 259.2,162.1 258.9,163.5 260.9,163.5 261.2,161.9 261.9,162.1 261.7,163.5
		263.9,163.5 264.2,161.9 264.9,162.1 264.7,163.5 266.6,163.5 266.8,162 267.6,162 267.4,163.5 269.6,163.5 269.8,162 270.6,162
		270.4,163.5 274.5,163.5 274.5,162.9 274,162.9 274,160.6 274.8,160.6 274.8,144.3 274,144.3 274,140.6 275.5,140.6 275.5,36.4
		274.8,36.4 274.8,33.8 275.5,33.8 275.5,8.2 274.8,8.2 274.8,5.6 280.8,5.6 280.8,2.8 282.6,2.8 282.6,0 305.7,0 305.7,2.8
		307.5,2.8 307.5,5.6 313.5,5.6 313.5,8.2 312.7,8.2 312.7,33.8 313.5,33.8 313.5,36.4 312.7,36.4 312.7,140.6 314.3,140.6
		314.3,144.3 313.4,144.3 313.4,160.6 314.3,160.6 314.3,162.9 313.8,162.9 313.8,163.5 317.8,163.5 317.7,162 318.4,162
		318.6,163.5 320.8,163.5 320.7,162 321.5,162 321.6,163.5 323.5,163.5 323.3,162.1 324.1,161.9 324.3,163.5 326.5,163.5
		326.3,162.1 327.1,161.9 327.3,163.5 329.3,163.5 329,162.1 329.8,161.9 330.1,163.5 332.2,163.5 331.9,162.1 332.7,161.9
		333,163.5 335,163.5 334.7,162.1 335.5,161.9 335.8,163.5 337.7,163.5 337.4,162.1 338.2,161.9 338.5,163.5 340.6,163.5
		340.3,162.1 341,161.9 341.4,163.5 343.3,163.5 343,162.1 343.7,161.9 344.2,163.5 346,163.5 345.7,162.1 346.4,161.9 346.9,163.5
		348.9,163.5 348.5,162.1 349.3,161.9 349.7,163.5 351.8,163.5 351.3,162.1 352.1,161.9 352.6,163.5 354.5,163.5 354.1,162.1
		354.8,161.9 355.3,163.5 357.3,163.5 356.8,162.1 357.6,161.9 358.2,163.5 365,163.5 359.2,166.3 360.7,170.8 360.7,170.8
		367.7,170.8 360.9,174.6 	"/>
	<rect x="275.5" y="8.6" fill="#96BFE6" width="7.4" height="25.5"/>
	<rect x="305.3" y="8.6" fill="#96BFE6" width="7.4" height="25.5"/>
	<rect x="274.5" y="162.5" fill="#96BFE6" width="12.8" height="27.3"/>
	<rect x="280.9" y="163.6" fill="#1E2B5C" width="2.6" height="24"/>
	<rect x="301" y="162.5" fill="#96BFE6" width="12.8" height="27.3"/>
	<rect x="304.8" y="163.6" fill="#1E2B5C" width="2.6" height="24"/>
	<rect x="274.8" y="33.8" fill="#96BFE6" width="38.7" height="2.6"/>
	<path fill="#96BFE6" d="M300.6,21.4c0,3.6-2.9,6.6-6.6,6.6c-3.6,0-6.6-2.9-6.6-6.6c0-3.6,2.9-6.6,6.6-6.6
		C297.7,14.9,300.6,17.8,300.6,21.4"/>

		<rect x="296.2" y="15.8" transform="matrix(0.5325 -0.8464 0.8464 0.5325 125.3492 259.2984)" fill="#0A72BA" width="2.5" height="0.7"/>

		<rect x="298.3" y="18.1" transform="matrix(0.9059 -0.4235 0.4235 0.9059 20.3944 128.5949)" fill="#0A72BA" width="2.5" height="0.7"/>
	<polygon fill="#0A72BA" points="297.4,28 296.3,26.3 296.9,25.9 298,27.6 	"/>

		<rect x="299" y="23.8" transform="matrix(0.4217 -0.9068 0.9068 0.4217 150.5376 285.783)" fill="#0A72BA" width="0.7" height="2.2"/>

		<rect x="290.5" y="14.9" transform="matrix(0.8465 -0.5324 0.5324 0.8465 36.028 157.307)" fill="#0A72BA" width="0.7" height="2.5"/>

		<rect x="288.3" y="17.2" transform="matrix(0.4215 -0.9068 0.9068 0.4215 150.2814 272.3915)" fill="#0A72BA" width="0.7" height="2.5"/>
	<polygon fill="#0A72BA" points="290.8,28 290.2,27.6 291.3,25.9 291.9,26.3 	"/>

		<rect x="287.8" y="24.5" transform="matrix(0.9069 -0.4213 0.4213 0.9069 16.4153 124.0538)" fill="#0A72BA" width="2.2" height="0.7"/>
	<rect x="293.8" y="14.2" fill="#0A72BA" width="0.7" height="2.2"/>
	<rect x="293.8" y="26.6" fill="#0A72BA" width="0.7" height="2.2"/>
	<rect x="299.2" y="21.1" fill="#0A72BA" width="2.2" height="0.7"/>
	<rect x="286.8" y="21.1" fill="#0A72BA" width="2.2" height="0.7"/>
	<path fill="#96BFE6" d="M294.1,42.4L294.1,42.4c-5.1,0-9.2,4.1-9.2,9.2V141h18.3V51.6C303.3,46.5,299.2,42.4,294.1,42.4"/>
	<path fill="#1E2B5C" d="M313.4,161.4h-38.6v-17.8h38.6V161.4z M275.6,160.6h37v-16.2h-37V160.6z"/>
	<path fill="#1E2B5C" d="M287,51.2h14.1c0,0-0.5-7-7.1-7C287.5,44.2,287,51.2,287,51.2"/>
	<rect x="288.1" y="63.6" fill="#1E2B5C" width="5" height="6.4"/>
	<rect x="295" y="115.4" fill="#1E2B5C" width="5" height="6.4"/>
	<rect x="295" y="124.7" fill="#1E2B5C" width="5" height="6.4"/>
	<rect x="295" y="132.7" fill="#1E2B5C" width="5" height="6.4"/>
	<rect x="295" y="107.4" fill="#1E2B5C" width="5" height="6.4"/>
	<rect x="295" y="63.6" fill="#1E2B5C" width="5" height="6.4"/>
	<rect x="295" y="98.2" fill="#1E2B5C" width="5" height="6.4"/>
	<rect x="288.1" y="72.8" fill="#1E2B5C" width="5" height="6.4"/>
	<rect x="295" y="55.5" fill="#1E2B5C" width="5" height="6.4"/>
	<rect x="295" y="72.8" fill="#1E2B5C" width="5" height="6.4"/>
	<rect x="295" y="90.1" fill="#1E2B5C" width="5" height="6.4"/>
	<rect x="288.1" y="55.5" fill="#1E2B5C" width="5" height="6.4"/>
	<rect x="288.1" y="80.9" fill="#1E2B5C" width="5" height="6.4"/>
	<rect x="288.1" y="90.1" fill="#1E2B5C" width="5" height="6.4"/>
	<rect x="295" y="80.9" fill="#1E2B5C" width="5" height="6.4"/>
	<rect x="288.1" y="107.4" fill="#1E2B5C" width="5" height="6.4"/>
	<rect x="288.1" y="98.2" fill="#1E2B5C" width="5" height="6.4"/>
	<rect x="288.1" y="132.7" fill="#1E2B5C" width="5" height="6.4"/>
	<rect x="288.1" y="115.4" fill="#1E2B5C" width="5" height="6.4"/>
	<rect x="288.1" y="124.7" fill="#1E2B5C" width="5" height="6.4"/>
	<rect x="274.8" y="36.4" fill="#1E2B5C" width="38.7" height="0.9"/>
	<polygon fill="#1E2B5C" points="295.1,44.7 293.2,44.7 292.7,40.4 295.5,40.4 	"/>
	<path fill="#96BFE6" d="M295.4,45.1h-2.5l-0.6-5.1h3.7L295.4,45.1z M293.6,44.3h1.1l0.4-3.5h-2L293.6,44.3z"/>
	<polygon fill="#1E2B5C" points="293.7,21.4 294.1,17.2 294.5,21.4 	"/>
	<polygon fill="#1E2B5C" points="294.1,21 297.9,21.4 294.1,21.7 	"/>
	<rect x="273.9" y="140.6" fill="#96BFE6" width="40.3" height="3.9"/>
	<rect x="282.6" y="1.9" fill="#1E2B5C" width="23.1" height="0.9"/>
	<rect x="280.7" y="4.7" fill="#1E2B5C" width="26.7" height="0.9"/>
	<rect x="274.7" y="8.2" fill="#1E2B5C" width="38.8" height="0.9"/>
	<polygon fill="#1E2B5C" points="305.3,9 307.5,33.8 305.3,33.8 	"/>
	<polygon fill="#1E2B5C" points="283,9 280.7,33.8 283,33.8 	"/>
	<rect x="273.9" y="160.6" fill="#96BFE6" width="40.3" height="2.3"/>
	<rect x="273.9" y="144.4" fill="#1E2B5C" width="40.3" height="1.4"/>
	<rect x="274.5" y="162.9" fill="#1E2B5C" width="39.3" height="1.4"/>
	<polygon fill="#1E2B5C" points="303.3,51.6 307.7,140.6 303.3,140.6 	"/>
	<polygon fill="#1E2B5C" points="285,51.6 280.5,140.6 285,140.6 	"/>
	<rect x="274" y="189.8" fill="#1E2B5C" width="40.3" height="1.6"/>
	<rect x="227.3" y="174.6" fill="#1E2B5C" width="47.2" height="1.1"/>
	<rect x="313.8" y="174.6" fill="#1E2B5C" width="47.2" height="1.1"/>
	<polygon fill="#1E2B5C" points="233.9,177.7 236.2,194.1 233.9,194.1 	"/>
	<polygon fill="#1E2B5C" points="251.4,177.7 253.8,194.1 251.5,194.1 	"/>
	<polygon fill="#1E2B5C" points="268.9,177.7 271.3,194.1 269,194.1 	"/>
	<polygon fill="#1E2B5C" points="354.5,177.7 352.1,194.1 354.4,194.1 	"/>
	<polygon fill="#1E2B5C" points="336.8,177.7 334.4,194.1 336.7,194.1 	"/>
	<polygon fill="#1E2B5C" points="319.4,177.7 317.1,194.1 319.4,194.1 	"/>
	<polygon fill="#1E2B5C" points="274.5,166.3 274.5,170.8 227.5,170.8 229.1,166.3 	"/>
	<path fill="#0A72BA" d="M335.5,140.7c0-0.1-0.1-0.3-0.2-0.5c0,0,0,0,0,0l0-0.1c0,0-0.1-0.1-0.1-0.1c-0.1-0.1-0.2-0.1-0.2-0.2
		c-0.3-0.4-0.2-0.4,0-0.6c0.2-0.4,0.3-1.1,0.2-1.6c-0.1-0.5-0.6-0.9-1-1.3c-0.2-0.2-0.3-0.3-0.4-0.5c-0.1-0.1-0.1-0.2-0.2-0.4
		c-0.1-0.2-0.2-0.3-0.4-0.4c-0.4-0.3-1-0.3-1.4-0.1c0,0-0.1,0.1-0.2,0.1c-0.2-0.3-0.4-0.6-0.6-0.8c-0.2-0.1-0.4-0.2-0.7-0.3
		c-0.1-0.3-0.2-0.5-0.3-0.7c-0.2-0.3-0.6-0.5-1-0.6c-0.1-0.3-0.3-0.6-0.5-0.8c-0.4-0.4-0.8-0.7-1.3-0.8c-0.5-0.1-1-0.1-1.6,0
		c-0.3,0-0.4,0.1-0.6,0.2c-0.2,0.1-0.3,0.3-0.5,0.5c-0.2,0.1-0.4-0.1-0.6,0c0,0-0.1,0-0.1,0.1c-0.2,0.2-0.2,0.3-0.5,0.3
		c-0.5,0-1.1-0.1-1.6,0.1c-0.5,0.2-0.9,0.4-1.3,0.8c-0.7,0.7-0.8,1.6-0.7,2.5c-0.1,0-0.2,0.1-0.3,0.1c0,0-0.1,0-0.1,0
		c-0.1,0-0.1,0.1-0.2,0.1c0,0-0.1,0-0.1,0.1c0,0-0.1,0.1-0.1,0.1c0,0-0.1,0.1-0.1,0.1c0,0-0.1,0-0.1,0.1c0,0-0.1,0.1-0.1,0.1
		c0,0,0,0,0,0c-0.2,0.2-0.3,0.4-0.4,0.6c0,0,0,0,0,0c-0.1,0.1-0.1,0.2-0.2,0.4c-0.1,0.3-0.2,0.7-0.1,1c0,0,0,0,0,0
		c0,0.1,0,0.1,0,0.2c0,0,0,0,0,0.1c0,0.1,0,0.2,0,0.2c-0.2,0.1-0.4,0.3-0.5,0.5c-0.4,0.5-0.8,1.3-0.7,1.9c0,0.2,0,0.4,0.1,0.6
		c0,0,0,0,0,0c0,0.1,0,0.1,0.1,0.2c0,0,0,0,0,0c0,0.1,0.1,0.1,0.1,0.2c0,0,0,0,0,0c0,0.1,0.1,0.1,0.1,0.2c0,0,0,0,0,0.1
		c0,0,0.1,0.1,0.1,0.1c0,0,0,0.1,0.1,0.1c0,0,0,0.1,0.1,0.1c0,0.1,0.1,0.1,0.1,0.2c0,0,0.1,0.1,0.1,0.1c0,0.1,0,0.2,0,0.2
		c0.1,0.5-0.1,1.1,0,1.6c0.1,0.4,0.2,0.9,0.5,1.2c0.3,0.4,0.8,0.4,1.2,0.6c0.3,0.1,0.5,0.2,0.6,0.5c0.1,0.2,0.1,0.4,0.2,0.5
		c0.1,0.3,0.5,0.6,0.8,0.7c0.4,0.2,0.8,0.2,1.2,0.2c0.2,0.4,0.4,0.8,0.6,1.3c0.5,0.9,0.8,1.1,1.1,1.7c0.2,0.5,0.5,1.4,0.9,1.9
		c0.4,0.6,0.8,1.1,0.7,2.8c0,0.9,0.1,3.6,0,4.9c-0.1,1.3-0.4,2.8-0.3,3.2c0.1,0.4,0.7,0.1,0.9,0.1c0.2,0,0.3,0.6,1,0.5
		c0.7-0.1,0.7-0.7,0.3-1.7c-0.3-1-0.5-3.3-0.5-4.7c-0.1-1.3,0.1-5.5,0.2-5.9c0.1-0.4,0.9-1.2,1.5-2.1c0.5-0.8,1.6-2.4,2.2-3.6
		c0.2,0,0.4,0,0.6-0.1c0.2-0.1,0.4-0.2,0.6-0.3c0.2-0.2,0.3-0.4,0.5-0.5c0.2-0.2,0.5-0.2,0.8-0.3c0.2-0.1,0.4-0.3,0.6-0.5
		c0,0,0-0.1,0.1-0.1c0.3-0.3,0.5-0.7,0.5-1.1c0-0.3-0.1-0.6-0.2-0.9c0,0,0.1-0.1,0.2-0.1c0,0,0,0,0,0c0,0,0.1-0.1,0.1-0.1
		c0,0,0,0,0,0c0,0,0.1-0.1,0.1-0.1c0,0,0,0,0,0c0.2-0.2,0.3-0.3,0.4-0.5c0,0,0,0,0,0c0-0.1,0.1-0.1,0.1-0.2c0,0,0,0,0,0
		c0-0.1,0.1-0.1,0.1-0.2c0,0,0,0,0,0C335.6,141.4,335.6,141.1,335.5,140.7 M325.6,152.9c-0.2,0.1-0.3-0.3-0.6-0.8
		c-0.4-0.6-0.9-1.2-1.3-1.8c-0.3-0.5-0.7-1.2-0.9-1.9c0,0,0.1,0,0.1,0c0.3,0.2,0.6,0.4,0.9,0.6c0.3,0.2,0.5,0.5,0.8,0.6
		c0.3,0.2,0.5,0.2,0.9,0.3c0.3,0.1,0.4,0.1,0.7,0c0,0.5-0.1,1-0.1,1.3C325.9,152.3,325.8,152.8,325.6,152.9 M327.2,150.9
		c-0.1,0,0.2-1.5,0.3-2.6c0.3-0.1,0.5-0.3,0.8-0.4c0.3-0.1,0.5-0.3,0.7-0.5c0.1-0.1,0.3-0.3,0.4-0.4c0.2-0.2,0.3-0.3,0.6-0.3
		c0.1,0,0.2,0.1,0.3,0.1c-0.3,0.6-0.9,1.7-1.4,2.3C328.1,150.2,327.3,150.9,327.2,150.9"/>
	<path fill="#1E2B5C" d="M326.1,132.5c0.1,1.4,0.2,2.7,0.3,4.1l0.1,4.1l0.2,8.2l0,1.6l-0.5-1.6c-0.3-1.1-0.8-2.1-1.4-3.1
		c-0.6-1-1.3-1.8-2.1-2.7c-0.7-0.9-1.5-1.7-2.2-2.6c-0.3-0.5-0.7-0.9-1-1.5c-0.3-0.5-0.6-1.1-0.5-1.6c0,0.6,0.3,1.1,0.6,1.5
		c0.3,0.5,0.7,0.9,1.1,1.3l2.3,2.6c1.5,1.7,2.9,3.7,3.6,5.9l-0.4,0.1l-0.2-8.2l-0.1-4.1C326,135.2,326,133.8,326.1,132.5"/>
	<path fill="#1E2B5C" d="M333,136.7c-0.3,0.5-0.6,0.9-0.8,1.3l-1,1.2c-0.6,0.8-1.4,1.5-1.9,2.4c-0.5,0.9-1,1.8-1.4,2.7l-0.6,1.4
		l-0.8,1.3l0.4-1.5l0.6-1.4c0.4-0.9,0.9-1.9,1.4-2.7c0.5-0.9,1.3-1.6,1.9-2.4l1-1.2C332.2,137.4,332.6,137.1,333,136.7"/>
	<path fill="#1E2B5C" d="M329.7,140.6c-0.1-0.2-0.3-0.4-0.4-0.6l-0.1-0.6c-0.1-0.4-0.1-0.8-0.2-1.3c0-0.4-0.1-0.8-0.1-1.3l0-0.6
		l0.2-0.6l0.2,0.6l0,0.6c0,0.4,0.1,0.8,0.1,1.2c0.1,0.4,0.1,0.8,0.2,1.2l0.1,0.6L329.7,140.6z"/>
	<path fill="#1E2B5C" d="M328.4,142.7l0.5-0.2l0.5,0c0.4,0,0.7-0.1,1.1-0.1c0.4-0.1,0.7-0.1,1-0.2c0.2,0,0.3-0.1,0.5-0.2
		c0.2,0,0.4,0,0.6,0c-0.1,0.1-0.3,0.3-0.4,0.4c-0.2,0.1-0.4,0.1-0.5,0.2c-0.4,0.1-0.7,0.2-1.1,0.2c-0.4,0.1-0.7,0.1-1.1,0.1l-0.6,0
		C328.8,142.8,328.6,142.8,328.4,142.7"/>
	<path fill="#1E2B5C" d="M326.1,137.7c-0.3,0-0.5,0-0.8-0.1c-0.2-0.1-0.5-0.2-0.7-0.4c-0.5-0.3-0.9-0.6-1.3-0.9
		c-0.4-0.4-0.8-0.8-1.1-1.2c-0.1-0.2-0.3-0.5-0.4-0.7c0-0.3,0-0.6,0-0.8c0.1,0.2,0.2,0.5,0.4,0.7c0.1,0.2,0.2,0.4,0.3,0.7
		c0.3,0.4,0.6,0.8,1,1.1c0.4,0.3,0.8,0.6,1.2,0.9c0.2,0.1,0.4,0.2,0.7,0.3L326.1,137.7z"/>
	<path fill="#1E2B5C" d="M322.7,142.8c-0.2-0.1-0.3-0.5-0.4-0.7l0-0.8c0-0.5,0-1-0.1-1.5c-0.1-0.5-0.2-1-0.3-1.5
		c-0.1-0.2-0.2-0.5-0.3-0.7c0-0.3-0.1-0.6-0.1-0.8c0.1,0.2,0.3,0.4,0.5,0.6c0.1,0.2,0.2,0.5,0.3,0.7c0.2,0.5,0.3,1,0.4,1.6
		c0.1,0.5,0.1,1.1,0.1,1.6l0,0.8C322.8,142.3,322.7,142.6,322.7,142.8"/>
	<path fill="#1E2B5C" d="M325.2,146c-0.3,0.1-0.7,0.1-1,0.2c-0.3,0-0.7-0.1-1-0.2c-0.7-0.2-1.3-0.4-1.9-0.7
		c-0.6-0.3-1.1-0.7-1.7-1.1c-0.3-0.2-0.5-0.4-0.8-0.6c-0.2-0.3-0.4-0.5-0.6-0.8c0.3,0.2,0.6,0.4,0.9,0.5c0.2,0.2,0.5,0.4,0.8,0.6
		c0.5,0.4,1.1,0.8,1.6,1.1c0.6,0.3,1.2,0.6,1.8,0.7c0.3,0.1,0.6,0.1,0.9,0.2C324.5,145.9,324.8,145.9,325.2,146"/>
	<path fill="#0A72BA" d="M268.3,140.7c0-0.1-0.1-0.3-0.2-0.5c0,0,0,0,0,0l0-0.1c0,0-0.1-0.1-0.1-0.1c-0.1-0.1-0.2-0.1-0.2-0.2
		c-0.3-0.4-0.2-0.4,0-0.6c0.2-0.4,0.3-1.1,0.2-1.6c-0.1-0.5-0.6-0.9-1-1.3c-0.2-0.2-0.3-0.3-0.4-0.5c-0.1-0.1-0.1-0.2-0.2-0.4
		c-0.1-0.2-0.2-0.3-0.4-0.4c-0.4-0.3-1-0.3-1.4-0.1c0,0-0.1,0.1-0.2,0.1c-0.2-0.3-0.4-0.6-0.6-0.8c-0.2-0.1-0.4-0.2-0.7-0.3
		c-0.1-0.3-0.2-0.5-0.3-0.7c-0.2-0.3-0.6-0.5-1-0.6c-0.1-0.3-0.3-0.6-0.5-0.8c-0.4-0.4-0.8-0.7-1.3-0.8c-0.5-0.1-1-0.1-1.6,0
		c-0.3,0-0.4,0.1-0.6,0.2c-0.2,0.1-0.3,0.3-0.5,0.5c-0.2,0.1-0.4-0.1-0.6,0c0,0-0.1,0-0.1,0.1c-0.2,0.2-0.2,0.3-0.5,0.3
		c-0.5,0-1.1-0.1-1.6,0.1c-0.5,0.2-0.9,0.4-1.3,0.8c-0.7,0.7-0.8,1.6-0.7,2.5c-0.1,0-0.2,0.1-0.3,0.1c0,0-0.1,0-0.1,0
		c-0.1,0-0.1,0.1-0.2,0.1c0,0-0.1,0-0.1,0.1c0,0-0.1,0.1-0.1,0.1c0,0-0.1,0.1-0.1,0.1c0,0-0.1,0-0.1,0.1c0,0-0.1,0.1-0.1,0.1
		c0,0,0,0,0,0c-0.2,0.2-0.3,0.4-0.4,0.6c0,0,0,0,0,0c-0.1,0.1-0.1,0.2-0.2,0.4c-0.1,0.3-0.2,0.7-0.1,1c0,0,0,0,0,0
		c0,0.1,0,0.1,0,0.2c0,0,0,0,0,0.1c0,0.1,0,0.2,0,0.2c-0.2,0.1-0.4,0.3-0.5,0.5c-0.4,0.5-0.8,1.3-0.7,1.9c0,0.2,0,0.4,0.1,0.6
		c0,0,0,0,0,0c0,0.1,0,0.1,0.1,0.2c0,0,0,0,0,0c0,0.1,0.1,0.1,0.1,0.2c0,0,0,0,0,0c0,0.1,0.1,0.1,0.1,0.2c0,0,0,0,0,0.1
		c0,0,0.1,0.1,0.1,0.1c0,0,0,0.1,0.1,0.1c0,0,0,0.1,0.1,0.1c0,0.1,0.1,0.1,0.1,0.2c0,0,0.1,0.1,0.1,0.1c0,0.1,0,0.2,0,0.2
		c0.1,0.5-0.1,1.1,0,1.6c0.1,0.4,0.2,0.9,0.5,1.2c0.3,0.4,0.8,0.4,1.2,0.6c0.3,0.1,0.5,0.2,0.6,0.5c0.1,0.2,0.1,0.4,0.2,0.5
		c0.1,0.3,0.5,0.6,0.8,0.7c0.4,0.2,0.8,0.2,1.2,0.2c0.2,0.4,0.4,0.8,0.6,1.3c0.5,0.9,0.8,1.1,1.1,1.7c0.2,0.5,0.5,1.4,0.9,1.9
		c0.4,0.6,0.8,1.1,0.7,2.8c0,0.9,0.1,3.6,0,4.9c-0.1,1.3-0.4,2.8-0.3,3.2c0.1,0.4,0.7,0.1,0.9,0.1c0.2,0,0.3,0.6,1,0.5
		c0.7-0.1,0.7-0.7,0.3-1.7c-0.3-1-0.5-3.3-0.5-4.7c-0.1-1.3,0.1-5.5,0.2-5.9c0.1-0.4,0.9-1.2,1.5-2.1c0.5-0.8,1.6-2.4,2.2-3.6
		c0.2,0,0.4,0,0.6-0.1c0.2-0.1,0.4-0.2,0.6-0.3c0.2-0.2,0.3-0.4,0.5-0.5c0.2-0.2,0.5-0.2,0.8-0.3c0.2-0.1,0.4-0.3,0.6-0.5
		c0,0,0-0.1,0.1-0.1c0.3-0.3,0.5-0.7,0.5-1.1c0-0.3-0.1-0.6-0.2-0.9c0,0,0.1-0.1,0.1-0.1c0,0,0,0,0,0c0,0,0.1-0.1,0.1-0.1
		c0,0,0,0,0,0c0,0,0.1-0.1,0.1-0.1c0,0,0,0,0,0c0.2-0.2,0.3-0.3,0.4-0.5c0,0,0,0,0,0c0-0.1,0.1-0.1,0.1-0.2c0,0,0,0,0,0
		c0-0.1,0.1-0.1,0.1-0.2c0,0,0,0,0,0C268.3,141.4,268.4,141.1,268.3,140.7 M258.4,152.9c-0.2,0.1-0.3-0.3-0.6-0.8
		c-0.4-0.6-0.9-1.2-1.3-1.8c-0.3-0.5-0.7-1.2-0.9-1.9c0,0,0.1,0,0.1,0c0.3,0.2,0.6,0.4,0.9,0.6c0.3,0.2,0.5,0.5,0.8,0.6
		c0.3,0.2,0.5,0.2,0.9,0.3c0.3,0.1,0.4,0.1,0.7,0c0,0.5-0.1,1-0.1,1.3C258.6,152.3,258.5,152.8,258.4,152.9 M259.9,150.9
		c-0.1,0,0.2-1.5,0.3-2.6c0.3-0.1,0.5-0.3,0.8-0.4c0.3-0.1,0.5-0.3,0.7-0.5c0.1-0.1,0.3-0.3,0.4-0.4c0.2-0.2,0.3-0.3,0.6-0.3
		c0.1,0,0.2,0.1,0.3,0.1c-0.3,0.6-0.9,1.7-1.4,2.3C260.8,150.2,260.1,150.9,259.9,150.9"/>
	<path fill="#1E2B5C" d="M258.8,132.5c0.1,1.4,0.2,2.7,0.3,4.1l0.1,4.1l0.2,8.2l0,1.6l-0.5-1.6c-0.3-1.1-0.8-2.1-1.4-3.1
		c-0.6-1-1.3-1.8-2.1-2.7c-0.7-0.9-1.5-1.7-2.2-2.6c-0.3-0.5-0.7-0.9-1-1.5c-0.3-0.5-0.6-1.1-0.5-1.6c0,0.6,0.3,1.1,0.6,1.5
		c0.3,0.5,0.7,0.9,1.1,1.3l2.3,2.6c1.5,1.7,2.9,3.7,3.6,5.9l-0.4,0.1l-0.2-8.2l-0.1-4.1C258.7,135.2,258.8,133.8,258.8,132.5"/>
	<path fill="#1E2B5C" d="M265.7,136.7c-0.3,0.5-0.6,0.9-0.8,1.3l-1,1.2c-0.6,0.8-1.4,1.5-1.9,2.4c-0.5,0.9-1,1.8-1.4,2.7l-0.6,1.4
		l-0.8,1.3l0.4-1.5l0.6-1.4c0.4-0.9,0.9-1.9,1.4-2.7c0.5-0.9,1.3-1.6,1.9-2.4l1-1.2C264.9,137.4,265.3,137.1,265.7,136.7"/>
	<path fill="#1E2B5C" d="M262.4,140.6c-0.1-0.2-0.3-0.4-0.4-0.6l-0.1-0.6c-0.1-0.4-0.1-0.8-0.2-1.3c0-0.4-0.1-0.8-0.1-1.3l0-0.6
		l0.2-0.6l0.2,0.6l0,0.6c0,0.4,0.1,0.8,0.1,1.2c0.1,0.4,0.1,0.8,0.2,1.2l0.1,0.6L262.4,140.6z"/>
	<path fill="#1E2B5C" d="M261.2,142.7l0.5-0.2l0.5,0c0.4,0,0.7-0.1,1.1-0.1c0.4-0.1,0.7-0.1,1-0.2c0.2,0,0.3-0.1,0.5-0.2
		c0.2,0,0.4,0,0.6,0c-0.1,0.1-0.3,0.3-0.4,0.4c-0.2,0.1-0.4,0.1-0.5,0.2c-0.4,0.1-0.7,0.2-1.1,0.2c-0.4,0.1-0.7,0.1-1.1,0.1l-0.6,0
		C261.5,142.8,261.3,142.8,261.2,142.7"/>
	<path fill="#1E2B5C" d="M258.8,137.7c-0.3,0-0.5,0-0.8-0.1c-0.2-0.1-0.5-0.2-0.7-0.4c-0.5-0.3-0.9-0.6-1.3-0.9
		c-0.4-0.4-0.8-0.8-1.1-1.2c-0.1-0.2-0.3-0.5-0.4-0.7c-0.1-0.3,0-0.6,0-0.8c0.1,0.2,0.2,0.5,0.4,0.7c0.1,0.2,0.2,0.4,0.3,0.7
		c0.3,0.4,0.6,0.8,1,1.1c0.4,0.3,0.8,0.6,1.2,0.9c0.2,0.1,0.4,0.2,0.7,0.3L258.8,137.7z"/>
	<path fill="#1E2B5C" d="M255.5,142.8c-0.2-0.1-0.3-0.5-0.4-0.7l0-0.8c0-0.5,0-1-0.1-1.5c-0.1-0.5-0.2-1-0.3-1.5
		c-0.1-0.2-0.2-0.5-0.3-0.7c0-0.3-0.1-0.6-0.1-0.8c0.1,0.2,0.3,0.4,0.5,0.6c0.1,0.2,0.2,0.5,0.3,0.7c0.2,0.5,0.3,1,0.4,1.6
		c0.1,0.5,0.1,1.1,0.1,1.6l0,0.8C255.5,142.3,255.4,142.6,255.5,142.8"/>
	<path fill="#1E2B5C" d="M257.9,146c-0.3,0.1-0.7,0.1-1,0.2c-0.3,0-0.7-0.1-1-0.2c-0.7-0.2-1.3-0.4-1.9-0.7
		c-0.6-0.3-1.1-0.7-1.7-1.1c-0.3-0.2-0.5-0.4-0.8-0.6c-0.2-0.3-0.4-0.5-0.6-0.8c0.3,0.2,0.6,0.4,0.9,0.5c0.2,0.2,0.5,0.4,0.8,0.6
		c0.5,0.4,1.1,0.8,1.6,1.1c0.6,0.3,1.2,0.6,1.8,0.7c0.3,0.1,0.6,0.1,0.9,0.2C257.2,145.9,257.6,145.9,257.9,146"/>
	<path fill="#0A72BA" d="M238.8,131.1c0-0.1-0.1-0.3-0.2-0.5c0,0,0,0,0,0c0,0,0,0,0-0.1c0,0-0.1-0.1-0.1-0.1
		c-0.1-0.1-0.2-0.1-0.2-0.2c-0.3-0.4-0.2-0.4,0-0.6c0.2-0.4,0.3-1.1,0.2-1.6c-0.1-0.5-0.6-0.9-1-1.3c-0.2-0.2-0.3-0.3-0.4-0.5
		c-0.1-0.1-0.1-0.2-0.2-0.4c-0.1-0.2-0.2-0.3-0.4-0.4c-0.4-0.3-1-0.3-1.4-0.1c0,0-0.1,0.1-0.2,0.1c-0.2-0.3-0.4-0.6-0.6-0.8
		c-0.2-0.1-0.4-0.2-0.7-0.3c-0.1-0.3-0.2-0.5-0.3-0.7c-0.2-0.3-0.6-0.5-1-0.6c-0.1-0.3-0.3-0.6-0.5-0.8c-0.4-0.4-0.8-0.7-1.3-0.8
		c-0.5-0.1-1-0.1-1.6,0c-0.3,0-0.4,0.1-0.6,0.2c-0.2,0.1-0.3,0.3-0.5,0.5c-0.2,0.1-0.4-0.1-0.6,0c0,0-0.1,0.1-0.1,0.1
		c-0.2,0.2-0.2,0.3-0.5,0.3c-0.5,0-1.1-0.1-1.6,0.1c-0.5,0.2-0.9,0.4-1.3,0.8c-0.7,0.7-0.8,1.6-0.7,2.5c-0.1,0-0.2,0.1-0.3,0.1
		c0,0-0.1,0-0.1,0c-0.1,0-0.1,0-0.2,0.1c0,0-0.1,0-0.1,0.1c0,0-0.1,0-0.1,0.1c0,0-0.1,0.1-0.1,0.1c0,0-0.1,0-0.1,0.1
		c0,0-0.1,0.1-0.1,0.1c0,0,0,0,0,0c-0.2,0.2-0.3,0.4-0.4,0.6v0c-0.1,0.1-0.1,0.2-0.2,0.4c-0.1,0.3-0.2,0.7-0.1,1c0,0,0,0,0,0
		c0,0.1,0,0.1,0,0.2l0,0.1c0,0.1,0,0.2,0,0.2c-0.2,0.1-0.3,0.3-0.5,0.5c-0.4,0.5-0.8,1.3-0.7,1.9c0,0.2,0,0.4,0.1,0.6c0,0,0,0,0,0
		c0,0.1,0,0.1,0.1,0.2c0,0,0,0,0,0c0,0.1,0,0.1,0.1,0.2c0,0,0,0,0,0c0,0.1,0.1,0.1,0.1,0.2c0,0,0,0,0,0.1c0,0,0.1,0.1,0.1,0.1
		c0,0,0,0.1,0.1,0.1c0,0,0,0.1,0.1,0.1c0,0.1,0.1,0.1,0.1,0.2c0,0,0.1,0.1,0.1,0.1c0,0.1,0,0.2,0,0.2c0.1,0.5-0.1,1.1,0,1.6
		c0.1,0.4,0.2,0.9,0.5,1.2c0.3,0.4,0.8,0.4,1.2,0.6c0.3,0.1,0.5,0.2,0.6,0.5c0.1,0.2,0.1,0.4,0.2,0.5c0.1,0.3,0.5,0.6,0.8,0.7
		c0.4,0.2,0.8,0.2,1.2,0.2c0.2,0.4,0.4,0.8,0.6,1.3c0.5,0.9,0.8,1.1,1.1,1.7c0.2,0.5,0.5,1.4,0.9,1.9c0.4,0.6,0.8,1.1,0.7,2.8
		c0,0.9,0.1,3.6,0,4.9c-0.1,1.3-0.4,2.8-0.3,3.2c0.1,0.4,0.7,0.1,0.9,0.1c0.2,0,0.3,0.6,1,0.5c0.7-0.1,0.7-0.7,0.3-1.7
		c-0.3-1-0.5-3.3-0.5-4.7c-0.1-1.3,0.1-5.5,0.2-5.9c0.1-0.4,0.9-1.2,1.5-2.1c0.5-0.8,1.6-2.4,2.2-3.6c0.2,0,0.4,0,0.6-0.1
		c0.2-0.1,0.4-0.2,0.6-0.3c0.2-0.2,0.3-0.4,0.5-0.5c0.2-0.2,0.5-0.2,0.8-0.3c0.2-0.1,0.4-0.3,0.6-0.5c0,0,0.1-0.1,0.1-0.1
		c0.3-0.3,0.5-0.7,0.5-1.1c0-0.3-0.1-0.6-0.2-0.9c0,0,0.1-0.1,0.1-0.1c0,0,0,0,0,0c0,0,0.1-0.1,0.1-0.1c0,0,0,0,0,0
		c0,0,0.1-0.1,0.1-0.1l0,0c0.2-0.2,0.3-0.3,0.4-0.5l0,0c0-0.1,0.1-0.1,0.1-0.2c0,0,0,0,0,0c0-0.1,0.1-0.1,0.1-0.2c0,0,0,0,0,0
		C238.8,131.8,238.9,131.4,238.8,131.1 M228.9,143.3c-0.2,0.1-0.3-0.3-0.6-0.8c-0.4-0.6-0.9-1.2-1.3-1.8c-0.3-0.5-0.7-1.2-0.9-1.9
		l0.1,0c0.3,0.2,0.6,0.4,0.9,0.6c0.3,0.2,0.5,0.5,0.8,0.6c0.3,0.2,0.5,0.2,0.9,0.3c0.3,0.1,0.4,0.1,0.7,0c0,0.5-0.1,1-0.1,1.3
		C229.1,142.7,229,143.2,228.9,143.3 M230.4,141.3c-0.1,0,0.2-1.5,0.3-2.6c0.3-0.1,0.5-0.3,0.8-0.4c0.3-0.1,0.5-0.3,0.7-0.5
		c0.1-0.1,0.3-0.3,0.4-0.4c0.2-0.2,0.3-0.3,0.6-0.3c0.1,0,0.2,0.1,0.3,0.1c-0.3,0.6-0.9,1.7-1.4,2.3
		C231.3,140.5,230.5,141.3,230.4,141.3"/>
	<path fill="#1E2B5C" d="M229.3,122.8c0.1,1.4,0.2,2.7,0.3,4.1l0.1,4.1l0.2,8.2l0,1.6l-0.5-1.6c-0.3-1.1-0.8-2.1-1.4-3.1
		c-0.6-1-1.3-1.8-2.1-2.7c-0.7-0.9-1.5-1.7-2.2-2.6c-0.3-0.5-0.7-0.9-1-1.5c-0.3-0.5-0.6-1.1-0.5-1.6c0,0.6,0.3,1.1,0.6,1.5
		c0.3,0.5,0.7,0.9,1.1,1.3l2.3,2.6c1.5,1.7,2.9,3.7,3.6,5.9l-0.4,0.1l-0.2-8.2l-0.1-4.1C229.2,125.6,229.2,124.2,229.3,122.8"/>
	<path fill="#1E2B5C" d="M236.2,127.1c-0.3,0.5-0.6,0.9-0.8,1.3l-1,1.2c-0.6,0.8-1.4,1.5-1.9,2.4c-0.5,0.9-1,1.8-1.4,2.7l-0.6,1.4
		l-0.8,1.3l0.4-1.5l0.6-1.4c0.4-0.9,0.9-1.9,1.4-2.7c0.5-0.9,1.3-1.6,1.9-2.4l1-1.2C235.4,127.8,235.8,127.5,236.2,127.1"/>
	<path fill="#1E2B5C" d="M232.9,131c-0.1-0.2-0.3-0.4-0.4-0.6l-0.1-0.6c-0.1-0.4-0.1-0.8-0.2-1.3c-0.1-0.4-0.1-0.8-0.1-1.3l0-0.6
		l0.2-0.6l0.2,0.6l0,0.6c0,0.4,0.1,0.8,0.1,1.2c0.1,0.4,0.1,0.8,0.2,1.2l0.1,0.6L232.9,131z"/>
	<path fill="#1E2B5C" d="M231.7,133.1l0.5-0.2l0.5,0c0.4,0,0.7-0.1,1.1-0.1c0.4-0.1,0.7-0.1,1-0.2c0.2,0,0.3-0.1,0.5-0.2
		c0.2,0,0.4,0,0.6,0c-0.1,0.1-0.3,0.3-0.4,0.4c-0.2,0.1-0.4,0.1-0.5,0.2c-0.4,0.1-0.7,0.2-1.1,0.2c-0.4,0.1-0.7,0.1-1.1,0.1l-0.6,0
		C232,133.2,231.8,133.2,231.7,133.1"/>
	<path fill="#1E2B5C" d="M229.3,128.1c-0.3,0-0.5,0-0.8-0.1c-0.2-0.1-0.5-0.2-0.7-0.4c-0.5-0.3-0.9-0.6-1.3-0.9
		c-0.4-0.4-0.8-0.8-1.1-1.2c-0.1-0.2-0.3-0.5-0.4-0.7c0-0.3,0-0.6,0-0.8c0.1,0.2,0.2,0.5,0.4,0.7c0.1,0.2,0.2,0.4,0.3,0.7
		c0.3,0.4,0.6,0.8,1,1.1c0.4,0.3,0.8,0.6,1.2,0.9c0.2,0.1,0.4,0.2,0.7,0.3L229.3,128.1z"/>
	<path fill="#1E2B5C" d="M226,133.2c-0.2-0.1-0.3-0.5-0.4-0.7l0-0.8c0-0.5,0-1-0.1-1.5c-0.1-0.5-0.2-1-0.3-1.5
		c-0.1-0.2-0.2-0.5-0.3-0.7c0-0.3-0.1-0.6-0.1-0.8c0.1,0.2,0.3,0.4,0.5,0.6c0.1,0.2,0.2,0.5,0.3,0.7c0.2,0.5,0.3,1,0.4,1.6
		c0.1,0.5,0.1,1.1,0.1,1.6l0,0.8C226,132.7,225.9,133,226,133.2"/>
	<path fill="#1E2B5C" d="M228.4,136.4c-0.3,0.1-0.7,0.1-1,0.2c-0.3,0-0.7-0.1-1-0.2c-0.7-0.2-1.3-0.4-1.9-0.8
		c-0.6-0.3-1.1-0.7-1.7-1.1c-0.3-0.2-0.5-0.4-0.8-0.6c-0.2-0.3-0.4-0.5-0.6-0.8c0.3,0.2,0.6,0.4,0.9,0.5c0.2,0.2,0.5,0.4,0.8,0.6
		c0.5,0.4,1.1,0.8,1.6,1.1c0.6,0.3,1.2,0.6,1.8,0.7c0.3,0.1,0.6,0.1,0.9,0.2C227.7,136.2,228.1,136.3,228.4,136.4"/>
	<path fill="#0A72BA" d="M370.2,132.7c0-0.1-0.1-0.3-0.2-0.5c0,0,0,0,0,0l0-0.1c0,0-0.1-0.1-0.1-0.1c-0.1-0.1-0.2-0.1-0.2-0.2
		c-0.3-0.4-0.2-0.4,0-0.6c0.2-0.4,0.3-1.1,0.2-1.6c-0.1-0.5-0.6-0.9-1-1.3c-0.2-0.2-0.3-0.3-0.4-0.5c-0.1-0.1-0.1-0.2-0.2-0.4
		c-0.1-0.2-0.2-0.3-0.4-0.4c-0.4-0.3-1-0.3-1.4-0.1c0,0-0.1,0.1-0.2,0.1c-0.2-0.3-0.4-0.6-0.6-0.8c-0.2-0.1-0.4-0.2-0.7-0.3
		c-0.1-0.3-0.2-0.5-0.3-0.7c-0.2-0.3-0.6-0.5-1-0.6c-0.1-0.3-0.3-0.6-0.5-0.8c-0.4-0.4-0.8-0.7-1.3-0.8c-0.5-0.1-1-0.1-1.6,0
		c-0.3,0-0.4,0.1-0.6,0.2c-0.2,0.1-0.3,0.3-0.5,0.5c-0.2,0.1-0.4-0.1-0.6,0c0,0-0.1,0-0.1,0.1c-0.2,0.2-0.2,0.3-0.5,0.3
		c-0.5,0-1.1-0.1-1.6,0.1c-0.5,0.2-0.9,0.4-1.3,0.8c-0.7,0.7-0.8,1.6-0.7,2.5c-0.1,0-0.2,0.1-0.3,0.1c0,0-0.1,0-0.1,0
		c-0.1,0-0.1,0-0.2,0.1c0,0-0.1,0-0.1,0.1c0,0-0.1,0.1-0.1,0.1c0,0-0.1,0.1-0.1,0.1c0,0-0.1,0-0.1,0.1c0,0-0.1,0.1-0.1,0.1
		c0,0,0,0,0,0c-0.2,0.2-0.3,0.4-0.4,0.6v0c-0.1,0.1-0.1,0.2-0.2,0.4c-0.1,0.3-0.2,0.7-0.1,1c0,0,0,0,0,0c0,0.1,0,0.1,0,0.2
		c0,0,0,0,0,0.1c0,0.1,0,0.2,0,0.2c-0.2,0.2-0.3,0.3-0.5,0.5c-0.4,0.5-0.8,1.3-0.7,1.9c0,0.2,0,0.4,0.1,0.6c0,0,0,0,0,0
		c0,0.1,0,0.1,0.1,0.2c0,0,0,0,0,0c0,0.1,0,0.1,0.1,0.2c0,0,0,0,0,0c0,0.1,0.1,0.1,0.1,0.2c0,0,0,0,0,0.1c0,0,0.1,0.1,0.1,0.1
		c0,0,0,0.1,0.1,0.1c0,0,0,0.1,0.1,0.1c0,0.1,0.1,0.1,0.1,0.2c0,0,0.1,0.1,0.1,0.1c0,0.1,0,0.2,0,0.2c0.1,0.5-0.1,1.1,0,1.6
		c0.1,0.4,0.2,0.9,0.5,1.2c0.3,0.4,0.8,0.4,1.2,0.6c0.3,0.1,0.5,0.2,0.6,0.5c0.1,0.2,0.1,0.4,0.2,0.5c0.1,0.3,0.5,0.6,0.8,0.7
		c0.4,0.2,0.8,0.2,1.2,0.2c0.2,0.4,0.4,0.8,0.6,1.3c0.5,0.9,0.8,1.1,1.1,1.7c0.2,0.5,0.5,1.4,0.9,1.9c0.4,0.6,0.8,1.1,0.7,2.8
		c0,0.9,0.1,3.6,0,4.9c-0.1,1.3-0.4,2.8-0.3,3.2c0.1,0.4,0.7,0.1,0.9,0.1c0.2,0,0.3,0.6,1,0.5s0.7-0.7,0.3-1.7
		c-0.3-1-0.5-3.3-0.5-4.7c-0.1-1.3,0.1-5.5,0.2-5.9c0.1-0.4,0.9-1.2,1.5-2.1c0.5-0.8,1.6-2.4,2.2-3.6c0.2,0,0.4,0,0.6-0.1
		c0.2-0.1,0.4-0.2,0.6-0.3c0.2-0.2,0.3-0.4,0.5-0.5c0.2-0.2,0.5-0.2,0.8-0.3c0.2-0.1,0.4-0.3,0.6-0.5c0,0,0-0.1,0.1-0.1c0,0,0,0,0,0
		c0.3-0.3,0.5-0.7,0.5-1.1c0-0.3-0.1-0.6-0.2-0.9c0,0,0.1-0.1,0.1-0.1c0,0,0,0,0,0c0,0,0.1-0.1,0.1-0.1c0,0,0,0,0,0
		c0,0,0.1-0.1,0.1-0.1c0,0,0,0,0,0c0.2-0.2,0.3-0.3,0.4-0.5l0,0c0-0.1,0.1-0.1,0.1-0.2c0,0,0,0,0,0c0-0.1,0.1-0.1,0.1-0.2
		c0,0,0,0,0,0C370.3,133.4,370.3,133.1,370.2,132.7 M360.3,144.9c-0.2,0.1-0.3-0.3-0.6-0.8c-0.4-0.6-0.9-1.2-1.3-1.8
		c-0.3-0.5-0.7-1.2-0.9-1.9c0,0,0.1,0,0.1,0c0.3,0.2,0.6,0.4,0.9,0.6c0.3,0.2,0.5,0.5,0.8,0.6c0.3,0.2,0.5,0.2,0.9,0.3
		c0.3,0.1,0.4,0.1,0.7,0c0,0.5-0.1,1-0.1,1.3C360.6,144.3,360.5,144.8,360.3,144.9 M361.9,142.9c-0.1,0,0.2-1.5,0.3-2.6
		c0.3-0.1,0.5-0.3,0.8-0.4c0.3-0.1,0.5-0.3,0.7-0.5c0.1-0.1,0.3-0.3,0.4-0.4c0.2-0.2,0.3-0.3,0.6-0.3c0.1,0,0.2,0.1,0.3,0.1
		c-0.3,0.6-0.9,1.7-1.4,2.3C362.8,142.2,362,142.9,361.9,142.9"/>
	<path fill="#1E2B5C" d="M360.7,124.4c0.1,1.4,0.2,2.7,0.3,4.1l0.1,4.1l0.2,8.2l0,1.6l-0.5-1.6c-0.3-1.1-0.8-2.1-1.4-3.1
		c-0.6-1-1.3-1.8-2.1-2.7c-0.7-0.9-1.5-1.7-2.2-2.6c-0.3-0.5-0.7-1-1-1.5c-0.3-0.5-0.6-1.1-0.5-1.6c0,0.6,0.3,1.1,0.6,1.5
		c0.3,0.5,0.7,0.9,1.1,1.3l2.3,2.6c1.5,1.7,2.9,3.7,3.6,5.9l-0.4,0.1l-0.2-8.2l-0.1-4.1C360.6,127.2,360.7,125.8,360.7,124.4"/>
	<path fill="#1E2B5C" d="M367.7,128.7c-0.3,0.5-0.6,0.9-0.8,1.3l-1,1.2c-0.6,0.8-1.4,1.5-1.9,2.4c-0.5,0.9-1,1.8-1.4,2.7l-0.6,1.4
		l-0.8,1.3l0.4-1.5l0.6-1.4c0.4-0.9,0.9-1.9,1.4-2.7c0.5-0.9,1.3-1.6,1.9-2.4l1-1.2C366.9,129.4,367.3,129.1,367.7,128.7"/>
	<path fill="#1E2B5C" d="M364.4,132.6c-0.1-0.2-0.3-0.4-0.4-0.6l-0.1-0.6c-0.1-0.4-0.1-0.8-0.2-1.3c0-0.4-0.1-0.8-0.1-1.3l0-0.6
		l0.2-0.6l0.2,0.6l0,0.6c0,0.4,0.1,0.8,0.1,1.2c0.1,0.4,0.1,0.8,0.2,1.2l0.1,0.6L364.4,132.6z"/>
	<path fill="#1E2B5C" d="M363.1,134.7l0.5-0.2l0.5,0c0.4,0,0.7-0.1,1.1-0.1s0.7-0.1,1-0.2c0.2,0,0.3-0.1,0.5-0.2c0.2,0,0.4,0,0.6,0
		c-0.1,0.1-0.3,0.3-0.4,0.4c-0.2,0.1-0.4,0.1-0.5,0.2c-0.4,0.1-0.7,0.2-1.1,0.2c-0.4,0.1-0.7,0.1-1.1,0.1l-0.6,0
		C363.5,134.8,363.3,134.8,363.1,134.7"/>
	<path fill="#1E2B5C" d="M360.7,129.7c-0.3,0-0.5,0-0.8-0.1c-0.2-0.1-0.5-0.2-0.7-0.4c-0.5-0.3-0.9-0.6-1.3-0.9
		c-0.4-0.4-0.8-0.8-1.1-1.2c-0.1-0.2-0.3-0.5-0.4-0.7c0-0.3,0-0.6,0-0.8c0.1,0.2,0.2,0.5,0.4,0.7c0.1,0.2,0.2,0.4,0.3,0.7
		c0.3,0.4,0.6,0.8,1,1.1c0.4,0.3,0.8,0.6,1.2,0.9c0.2,0.1,0.4,0.2,0.7,0.3L360.7,129.7z"/>
	<path fill="#1E2B5C" d="M357.4,134.8c-0.2-0.1-0.3-0.5-0.4-0.7l0-0.8c0-0.5,0-1-0.1-1.5c-0.1-0.5-0.2-1-0.3-1.5
		c-0.1-0.2-0.2-0.5-0.3-0.7c0-0.3-0.1-0.6-0.1-0.8c0.1,0.2,0.3,0.4,0.5,0.6c0.1,0.2,0.2,0.5,0.3,0.7c0.2,0.5,0.3,1,0.4,1.6
		c0.1,0.5,0.1,1.1,0.1,1.6l0,0.8C357.4,134.3,357.3,134.6,357.4,134.8"/>
	<path fill="#1E2B5C" d="M359.8,138c-0.3,0.1-0.7,0.1-1,0.2c-0.3,0-0.7-0.1-1-0.2c-0.7-0.2-1.3-0.4-1.9-0.8
		c-0.6-0.3-1.1-0.7-1.7-1.1c-0.3-0.2-0.5-0.4-0.8-0.6c-0.2-0.3-0.4-0.5-0.6-0.8c0.3,0.2,0.6,0.4,0.9,0.5c0.2,0.2,0.5,0.4,0.8,0.6
		c0.5,0.4,1.1,0.8,1.6,1.1c0.6,0.3,1.2,0.6,1.8,0.7c0.3,0.1,0.6,0.1,0.9,0.2C359.2,137.9,359.5,137.9,359.8,138"/>
	<polygon fill="#0A72BA" points="55.5,175.1 55.5,173.4 53.5,173.4 53.3,175.5 	"/>
	<polygon fill="#0A72BA" points="163.7,175.1 163.7,173.4 161.7,173.4 161.5,175.5 	"/>
	<polygon fill="#0A72BA" points="76.1,174.6 72.5,196.2 48.6,196.2 52.2,174.6 	"/>
	<rect x="9.3" y="124.7" fill="#96BFE6" width="44.1" height="71.5"/>
	<path fill="#1E2B5C" d="M35.5,140.7h-7.1v-12.3h7.1V140.7z M35.3,154.4c0-2-1.6-3.6-3.6-3.6s-3.6,1.6-3.6,3.6v12.3h7.1V154.4z
		 M49.2,154.4c0-2-1.6-3.6-3.6-3.6s-3.6,1.6-3.6,3.6v12.3h7.1V154.4z M21.4,154.4c0-2-1.6-3.6-3.6-3.6c-2,0-3.6,1.6-3.6,3.6v12.3
		h7.1V154.4z M21.4,128.4h-7.1v12.3h7.1V128.4z M49.2,128.4h-7.1v12.3h7.1V128.4z M35.5,176.3h-7.1v12.3h7.1V176.3z M21.4,176.3
		h-7.1v12.3h7.1V176.3z M49.2,176.3h-7.1v12.3h7.1V176.3z"/>
	<path fill="#96BFE6" d="M213.1,119c-0.3-0.2-0.6-0.3-0.9-0.3c-0.1,0-0.2,0-0.2,0H4.7c-0.2,0-0.4,0-0.6,0.1c-0.9,0.2-1.5,1-1.6,1.9
		c0,0.1,0,0.1,0,0.2c0,1,0.7,1.8,1.6,2.1c0.2,0.1,0.4,0.1,0.6,0.1h77.9h32.2h97.1c0.1,0,0.2,0,0.2,0c0.3,0,0.7-0.2,0.9-0.3
		c0.6-0.4,1-1.1,1-1.8C214.1,120.1,213.7,119.4,213.1,119"/>
	<rect x="163.2" y="124.7" fill="#96BFE6" width="44.1" height="71.5"/>
	<path fill="#1E2B5C" d="M189.4,140.7h-7.1v-12.3h7.1V140.7z M189.2,154.4c0-2-1.6-3.6-3.6-3.6c-2,0-3.6,1.6-3.6,3.6v12.3h7.1V154.4
		z M203.1,154.4c0-2-1.6-3.6-3.6-3.6s-3.6,1.6-3.6,3.6v12.3h7.1V154.4z M175.3,154.4c0-2-1.6-3.6-3.6-3.6c-2,0-3.6,1.6-3.6,3.6v12.3
		h7.1V154.4z M175.3,128.4h-7.1v12.3h7.1V128.4z M203.1,128.4H196v12.3h7.1V128.4z M189.4,176.3h-7.1v12.3h7.1V176.3z M175.3,176.3
		h-7.1v12.3h7.1V176.3z M203.1,176.3H196v12.3h7.1V176.3z"/>
	<path fill="#96BFE6" d="M216,112c0,1.5-1.3,2.8-2.8,2.8H3.5c-1.5,0-2.8-1.3-2.8-2.8c0-1.5,1.3-2.8,2.8-2.8h209.7
		C214.7,109.2,216,110.5,216,112"/>
	<polygon fill="#1E2B5C" points="360.7,170.8 313.8,170.8 313.8,166.3 359.2,166.3 	"/>
</g>
</svg>
