<svg width="24" height="24" viewBox="0 0 24 24" fill="none" xmlns="http://www.w3.org/2000/svg">
<g id="icon-location-pin 1">
<g id="Group">
<path id="Vector" d="M12 1V7C11.2044 7 10.4413 7.31607 9.8787 7.87868C9.31609 8.44129 9.00002 9.20435 9.00002 10C9.00002 10.7956 9.31609 11.5587 9.8787 12.1213C10.4413 12.6839 11.2044 13 12 13V22.31C11.7377 22.3089 11.4863 22.2047 11.3 22.02L5.64002 16.36C4.38295 15.1014 3.52705 13.4984 3.18044 11.7536C2.83383 10.0088 3.01204 8.20048 3.69258 6.55692C4.37312 4.91336 5.52545 3.50833 7.00403 2.51929C8.48262 1.53025 10.2211 1.00156 12 1Z" fill="#FED000"/>
<path id="Vector_2" d="M12 1C13.7789 1.00156 15.5174 1.53025 16.996 2.51929C18.4746 3.50833 19.6269 4.91336 20.3074 6.55692C20.988 8.20048 21.1662 10.0088 20.8196 11.7536C20.473 13.4984 19.6171 15.1014 18.36 16.36L12.71 22.02C12.6174 22.1145 12.5069 22.1897 12.3851 22.2412C12.2632 22.2927 12.1323 22.3195 12 22.32V13C12.7956 13 13.5587 12.6839 14.1213 12.1213C14.6839 11.5587 15 10.7956 15 10C15 9.20435 14.6839 8.44129 14.1213 7.87868C13.5587 7.31607 12.7956 7 12 7V1Z" fill="#FED000"/>
</g>
</g>
</svg>
