<svg width="24" height="24" viewBox="0 0 24 24" fill="none" xmlns="http://www.w3.org/2000/svg">
<g id="icon-book-open2 1">
<g id="Group">
<path id="Vector" d="M12 21C11.4704 20.9978 10.9634 20.7856 10.59 20.41L9.76 19.59C9.57394 19.4028 9.35268 19.2543 9.10897 19.1531C8.86526 19.0518 8.60391 18.9998 8.34 19H4C3.73478 19 3.48043 18.8946 3.29289 18.7071C3.10536 18.5196 3 18.2652 3 18V4C3 3.73478 3.10536 3.48043 3.29289 3.29289C3.48043 3.10536 3.73478 3 4 3H8C8.77623 3 9.54179 3.18073 10.2361 3.52786C10.9303 3.875 11.5343 4.37902 12 5V21Z" fill="#FED000"/>
<path id="Vector_2" d="M12 21V5C12.4657 4.37902 13.0697 3.875 13.7639 3.52786C14.4582 3.18073 15.2238 3 16 3H20C20.2652 3 20.5196 3.10536 20.7071 3.29289C20.8946 3.48043 21 3.73478 21 4V18C21 18.2652 20.8946 18.5196 20.7071 18.7071C20.5196 18.8946 20.2652 19 20 19H15.66C15.3961 18.9998 15.1347 19.0518 14.891 19.1531C14.6473 19.2543 14.4261 19.4028 14.24 19.59L13.41 20.41C13.0366 20.7856 12.5296 20.9978 12 21Z" fill="#C8A400"/>
</g>
</g>
</svg>
